<?xml version="1.0" encoding="UTF-8" standalone="no"?>
<svg
   xmlns:dc="http://purl.org/dc/elements/1.1/"
   xmlns:cc="http://creativecommons.org/ns#"
   xmlns:rdf="http://www.w3.org/1999/02/22-rdf-syntax-ns#"
   xmlns:svg="http://www.w3.org/2000/svg"
   xmlns="http://www.w3.org/2000/svg"
   xmlns:sodipodi="http://sodipodi.sourceforge.net/DTD/sodipodi-0.dtd"
   xmlns:inkscape="http://www.inkscape.org/namespaces/inkscape"
   viewBox="0 0 24 24"
   fill="black"
   width="48px"
   height="48px"
   version="1.1"
   id="svg6"
   sodipodi:docname="close.svg"
   inkscape:version="1.0.1 (0767f8302a, 2020-10-17)">
  <metadata
     id="metadata12">
    <rdf:RDF>
      <cc:Work
         rdf:about="">
        <dc:format>image/svg+xml</dc:format>
        <dc:type
           rdf:resource="http://purl.org/dc/dcmitype/StillImage" />
        <dc:title></dc:title>
      </cc:Work>
    </rdf:RDF>
  </metadata>
  <defs
     id="defs10" />
  <sodipodi:namedview
     pagecolor="#ffffff"
     bordercolor="#666666"
     borderopacity="1"
     objecttolerance="10"
     gridtolerance="10"
     guidetolerance="10"
     inkscape:pageopacity="0"
     inkscape:pageshadow="2"
     inkscape:window-width="1920"
     inkscape:window-height="1043"
     id="namedview8"
     showgrid="false"
     inkscape:zoom="16.708333"
     inkscape:cx="24"
     inkscape:cy="24"
     inkscape:window-x="1920"
     inkscape:window-y="0"
     inkscape:window-maximized="1"
     inkscape:current-layer="svg6" />
  <path
     d="M0 0h24v24H0V0z"
     fill="none"
     id="path2" />
  <path
     d="m 16.778157,6.4540701 c -0.295791,-0.2957907 -0.773606,-0.2957907 -1.069397,0 L 12,10.155246 8.2912401,6.4464857 c -0.2957906,-0.2957907 -0.7736063,-0.2957907 -1.069397,0 -0.2957907,0.2957907 -0.2957907,0.7736064 0,1.069397 l 3.7087609,3.7087603 -3.7087609,3.70876 c -0.2957907,0.295791 -0.2957907,0.773606 0,1.069397 0.2957907,0.295791 0.7736064,0.295791 1.069397,0 L 12,12.29404 15.70876,16.0028 c 0.295791,0.295791 0.773606,0.295791 1.069397,0 0.295791,-0.295791 0.295791,-0.773606 0,-1.069397 l -3.70876,-3.70876 3.70876,-3.7087603 c 0.288206,-0.2882062 0.288206,-0.7736063 0,-1.0618126 z"
     id="path4"
     style="fill:#20dfac;fill-opacity:1;stroke-width:0.758437" />
</svg>
