<svg width="13" height="24" viewBox="0 0 13 24" fill="none" xmlns="http://www.w3.org/2000/svg">
<path fill-rule="evenodd" clip-rule="evenodd" d="M1.78613 3.02054H11.2138C11.7922 3.02054 12.2618 2.55443 12.2618 1.97945C12.2618 1.40564 11.7926 0.938354 11.2138 0.938354H1.78613C1.20766 0.938354 0.738037 1.40447 0.738037 1.97945C0.738037 2.55326 1.20728 3.02054 1.78613 3.02054Z" fill="#EF3934"/>
<path fill-rule="evenodd" clip-rule="evenodd" d="M1.78613 9.52739H11.2138C11.7922 9.52739 12.2618 9.06127 12.2618 8.48629C12.2618 7.91248 11.7926 7.44519 11.2138 7.44519H1.78613C1.20766 7.44519 0.738037 7.91131 0.738037 8.48629C0.738037 9.0601 1.20728 9.52739 1.78613 9.52739Z" fill="#EF3934"/>
<path fill-rule="evenodd" clip-rule="evenodd" d="M1.91763 16.2945H8.20111C8.78129 16.2945 9.24985 15.8284 9.24985 15.2534C9.24985 14.6796 8.78031 14.2123 8.20111 14.2123H1.91763C1.33745 14.2123 0.868896 14.6784 0.868896 15.2534C0.868896 15.8272 1.33843 16.2945 1.91763 16.2945Z" fill="#EF3934"/>
<path fill-rule="evenodd" clip-rule="evenodd" d="M1.78613 23.0617H11.2138C11.7922 23.0617 12.2618 22.5956 12.2618 22.0206C12.2618 21.4468 11.7926 20.9795 11.2138 20.9795H1.78613C1.20766 20.9795 0.738037 21.4456 0.738037 22.0206C0.738037 22.5944 1.20728 23.0617 1.78613 23.0617Z" fill="#EF3934"/>
<path fill-rule="evenodd" clip-rule="evenodd" d="M0.738037 22.0203C0.738037 22.5943 1.20707 23.0616 1.78566 23.0616C2.36306 23.0616 2.83328 22.5954 2.83328 22.0203V8.48647C2.83328 7.91256 2.36424 7.44519 1.78566 7.44519C1.20825 7.44519 0.738037 7.91139 0.738037 8.48647V22.0203Z" fill="#EF3934"/>
</svg>
