<svg width="93" height="26" viewBox="0 0 93 26" fill="none" xmlns="http://www.w3.org/2000/svg">
<path d="M4.34577 10.6712C5.64296 5.8712 10.6191 3.02267 15.4602 4.30882C17.132 4.75298 18.5691 5.63212 19.6808 6.79054L23.2427 4.75155C21.5655 2.7228 19.2547 1.17684 16.5041 0.44608C9.51133 -1.4117 2.32362 2.70285 0.449905 9.63619C-1.42381 16.5695 2.72602 23.6961 9.71881 25.5539C16.3839 27.3246 23.226 23.6697 25.4752 17.3197L21.5627 16.2803C19.9038 20.4971 15.2747 22.8899 10.7627 21.6912C5.92154 20.405 3.04859 15.4712 4.34577 10.6712Z" fill="#20DFAC"/>
<path d="M25.6519 9.0865L30.6429 17.6576L26.9045 16.6644C26.3879 16.5272 25.9474 16.1921 25.68 15.7328L24.434 13.593L22.2759 14.8284C21.8127 15.0936 21.2623 15.1654 20.7456 15.0282L17.0073 14.035L25.6519 9.0865Z" fill="#20DFAC"/>
<path d="M78.0001 7.89287C79.0257 7.89287 79.8572 7.0614 79.8572 6.03573C79.8572 5.01006 79.0257 4.17859 78.0001 4.17859C76.9744 4.17859 76.1429 5.01006 76.1429 6.03573C76.1429 7.0614 76.9744 7.89287 78.0001 7.89287Z" fill="white"/>
<path d="M37.8412 20.4286H40.9612V10.3554L44.928 17.732H46.8L50.7669 10.3554V20.4286H53.9092V4.82859H52.4383C51.4095 4.82859 50.4645 5.39562 49.9803 6.30338L45.9532 13.8543L41.9049 6.29866C41.4199 5.39352 40.4763 4.82859 39.4494 4.82859H37.8412V20.4286Z" fill="white"/>
<path fill-rule="evenodd" clip-rule="evenodd" d="M59.436 20.696C60.84 20.696 62.0212 20.2057 62.8235 19.0023V20.4286H65.6538V13.9657C65.6538 10.556 64.116 8.82145 60.84 8.82145C58.7006 8.82145 57.4841 9.80945 56.0365 11.1429L57.8936 13C58.8222 12.0714 59.7508 11.4687 60.84 11.4687C62.0658 11.4687 62.6675 11.9823 62.6675 13.2526V13.6314L59.9932 14.0772C57.8538 14.4114 55.7143 15.1469 55.7143 17.4646C55.7143 19.5372 57.0069 20.696 59.436 20.696ZM60.2606 18.4229C59.1686 18.4229 58.7006 18.044 58.7006 17.2863C58.7006 16.3503 59.4806 16.0606 60.7286 15.86L62.6675 15.548V16.2389C62.6675 17.5983 61.5309 18.4229 60.2606 18.4229Z" fill="white"/>
<path d="M74.6079 20.4286C74.0731 20.5846 72.4088 20.6514 71.8962 20.6514C69.4893 20.6514 68.5311 19.3589 68.5311 17.576V11.9377H66.8347L65.9061 9.44173H68.5311V6.3663H71.5173V9.44173H74.6079V11.9377H71.5173V16.8629C71.5173 17.6874 71.7625 18.0886 72.6762 18.0886L72.7301 18.0887L72.7964 18.089C73.182 18.0907 73.7718 18.0934 74.6079 17.9693V20.4286Z" fill="white"/>
<path d="M76.4824 20.4286H79.491V9.44173H76.4824V20.4286Z" fill="white"/>
<path d="M85.0049 20.4286H81.9963V4.82859H85.0049V13.9286L88.9272 9.44173H92.6043L87.6346 14.3892L92.7157 20.4286H88.9717L85.0049 15.41V20.4286Z" fill="white"/>
</svg>
