<svg width="32" height="28" viewBox="0 0 32 28" fill="none" xmlns="http://www.w3.org/2000/svg">
<path d="M10.3894 0.193862L10.4169 0.193237L10.4194 0.223862L10.3844 0.225112L10.3894 0.193862Z" fill="#0BA25E"/>
<path d="M10.2825 0.39895C10.3069 0.36395 10.3544 0.29395 10.3787 0.25895L10.4225 0.252075C10.455 0.648325 10.5712 1.0302 10.6587 1.41583C11.035 3.09145 11.415 4.76583 11.8106 6.43645C12.07 7.58208 12.3594 8.72208 12.5969 9.87208C12.8031 10.584 12.9137 11.3183 13.1131 12.0315C13.2419 12.6965 13.4438 13.3452 13.5519 14.014C13.5081 14.0871 13.4644 14.1608 13.42 14.234C13.4094 14.2508 13.3869 14.2858 13.3762 14.3033L13.36 14.3315C13.3575 14.3365 13.3519 14.3471 13.3488 14.3521C13.3244 14.3971 13.2756 14.4865 13.2512 14.5308C13.2469 14.539 13.2375 14.5552 13.2325 14.5633L13.1881 14.6421C13.1825 14.6515 13.1719 14.6696 13.1669 14.679L13.115 14.7696C13.1125 14.7746 13.1069 14.7846 13.1037 14.7896L13.0394 14.9021C13.0337 14.9115 13.0225 14.9315 13.0169 14.9415C13.0106 14.9521 12.9981 14.9727 12.9919 14.9833L12.9288 15.0921C12.9237 15.1002 12.9137 15.1177 12.9087 15.1258L12.87 15.1915C12.8637 15.2027 12.85 15.2258 12.8438 15.2371C12.8188 15.2802 12.7694 15.3665 12.7444 15.4102C12.74 15.4177 12.7306 15.4333 12.7262 15.4415L12.6869 15.5071C12.6806 15.519 12.6669 15.5415 12.66 15.5533C12.6369 15.594 12.5894 15.6746 12.5662 15.7152C12.5606 15.7246 12.55 15.744 12.5444 15.7533L12.4975 15.8377C12.4931 15.8452 12.4844 15.8608 12.48 15.8683L12.4319 15.9527C12.4269 15.9615 12.4169 15.979 12.4119 15.9877C12.3869 16.029 12.3381 16.1121 12.3137 16.154C12.3081 16.1633 12.2969 16.1827 12.2912 16.1927L12.2469 16.2727C12.2425 16.2802 12.2344 16.2946 12.2306 16.3021L12.1794 16.3908C12.175 16.399 12.1656 16.4146 12.1613 16.4221C12.135 16.4671 12.0831 16.5565 12.0569 16.6015C12.0525 16.6096 12.0425 16.6258 12.0375 16.634L12 16.6958C11.9937 16.7071 11.9806 16.729 11.9744 16.7402C11.9506 16.7815 11.9038 16.8633 11.88 16.9046C11.8763 16.9115 11.8675 16.9265 11.8637 16.9333L11.8125 17.0246C11.8088 17.0315 11.8012 17.0446 11.7975 17.0515L11.745 17.1433C11.7406 17.1502 11.7319 17.1652 11.7275 17.1721C11.7031 17.2133 11.6537 17.2946 11.6294 17.3358C11.6225 17.3465 11.61 17.369 11.6031 17.3802L11.5662 17.449C11.5612 17.4577 11.5519 17.4752 11.5475 17.4833L11.4831 17.5946C11.4781 17.604 11.4669 17.6227 11.4619 17.6321C11.4563 17.6408 11.4462 17.659 11.4412 17.6677C11.3356 17.8458 11.24 18.0296 11.1231 18.2008C10.4575 19.2865 9.845 20.4058 9.20062 21.5046C8.15437 23.3152 7.10938 25.1258 6.06313 26.9365C5.90625 27.2183 5.7275 27.4883 5.5925 27.7827C5.58563 27.7927 5.57188 27.8127 5.565 27.8227C5.31437 27.4615 5.12063 27.0627 4.89125 26.6877C3.845 24.8758 2.79813 23.0646 1.7525 21.2521C1.17125 20.2327 0.565625 19.2258 0 18.1971C2.24 14.3315 4.47 10.459 6.70563 6.59083C6.7075 6.58708 6.71188 6.5802 6.71375 6.57645L6.775 6.47145C6.7775 6.46708 6.7825 6.45833 6.78562 6.45395L6.8475 6.34833C6.85313 6.33895 6.86438 6.31895 6.87063 6.30958C6.87687 6.29833 6.88938 6.27645 6.89563 6.2652L6.9575 6.1552C6.96187 6.1477 6.97063 6.1327 6.975 6.1252L7.02125 6.05145C7.02938 6.03958 7.04563 6.0152 7.05375 6.0027C7.07625 5.96895 7.12187 5.90083 7.145 5.86708C7.1475 5.85583 7.15188 5.83395 7.15438 5.82333L7.20875 5.71895C7.21125 5.71458 7.21625 5.70583 7.21875 5.70145L7.28125 5.59645C7.2875 5.58645 7.3 5.5652 7.30625 5.55458C7.31313 5.5427 7.32688 5.51833 7.33438 5.50583L7.38688 5.41395C7.3925 5.40395 7.40375 5.38458 7.40938 5.3752L7.45312 5.29833C7.45813 5.2902 7.46812 5.2727 7.47312 5.26395C7.4975 5.22208 7.54625 5.13833 7.57125 5.09645C7.57625 5.0877 7.58625 5.0702 7.59125 5.06145L7.63688 4.97833C7.64062 4.97208 7.64813 4.95833 7.65188 4.95208L7.71187 4.84708C7.71938 4.83458 7.735 4.80895 7.74312 4.79645L7.78375 4.7352C7.7925 4.7227 7.80938 4.69833 7.81813 4.68645C7.82563 4.67395 7.84125 4.64895 7.84938 4.63645L7.88313 4.57145C7.89438 4.54708 7.9175 4.49833 7.92875 4.47395L7.96312 4.42583C7.96937 4.41708 7.98125 4.4002 7.9875 4.39145C8.01062 4.37208 8.0575 4.33208 8.08062 4.31208L8.07625 4.23895C8.08 4.2302 8.08875 4.2127 8.09312 4.20395L8.14625 4.09833C8.15063 4.09083 8.15937 4.0752 8.16375 4.0677L8.21062 3.99145C8.21937 3.97895 8.23625 3.95395 8.245 3.94145C8.26625 3.90645 8.30937 3.8377 8.33062 3.80333C8.33687 3.79083 8.34812 3.76645 8.35437 3.75395L8.3875 3.68208C8.3975 3.66333 8.41875 3.6252 8.42937 3.60583L8.47062 3.54708C8.47937 3.5352 8.49687 3.51145 8.50562 3.49958C8.51312 3.48708 8.52875 3.46208 8.53625 3.44958L8.56687 3.3852C8.57375 3.37083 8.58812 3.34145 8.595 3.32708L8.64875 3.22333C8.65687 3.21083 8.6725 3.18458 8.68 3.17145L8.72125 3.1102C8.73 3.0977 8.7475 3.07395 8.75625 3.06145C8.76437 3.04895 8.78 3.02333 8.7875 3.01083L8.81938 2.94583C8.82875 2.9277 8.84688 2.89208 8.85563 2.87395L8.89812 2.80395C8.90562 2.79208 8.92062 2.76833 8.92875 2.75645C8.95125 2.72145 8.99687 2.65145 9.02 2.61708C9.0225 2.60645 9.02812 2.5852 9.03062 2.57458L9.085 2.47083C9.08687 2.46645 9.09188 2.45833 9.09437 2.45395L9.15687 2.34708C9.16313 2.33645 9.175 2.31583 9.18125 2.3052C9.1875 2.2952 9.19937 2.27395 9.20562 2.26395L9.26812 2.15458C9.27062 2.1502 9.27563 2.14145 9.27812 2.13645L9.33687 2.03458C9.34 2.0302 9.34562 2.02083 9.34812 2.01583L9.41125 1.90958C9.41687 1.89958 9.42813 1.88083 9.43375 1.87083C9.44 1.8602 9.4525 1.83833 9.45875 1.82708L9.51875 1.72145C9.5225 1.71458 9.53 1.70145 9.53375 1.6952L9.58437 1.61333C9.5925 1.60145 9.60875 1.57708 9.61625 1.5652C9.63937 1.53083 9.68437 1.46208 9.7075 1.4277C9.70937 1.41708 9.71438 1.39583 9.71688 1.3852L9.77 1.28333C9.77437 1.27583 9.78375 1.2602 9.78813 1.25208L9.83562 1.1777C9.84437 1.16583 9.86062 1.14145 9.86937 1.12895C9.89125 1.09395 9.935 1.02458 9.95687 0.989575C9.96 0.979575 9.96562 0.959575 9.96875 0.949575L10.0237 0.84645C10.0262 0.84145 10.0312 0.8327 10.0337 0.8277L10.0975 0.7202C10.1025 0.710825 10.1137 0.692075 10.1194 0.6827C10.125 0.672075 10.1362 0.652075 10.1419 0.642075L10.2044 0.530825C10.2075 0.52645 10.2125 0.517075 10.215 0.5127L10.2744 0.412075C10.2762 0.40895 10.2806 0.402075 10.2825 0.39895Z" fill="#0BA25E"/>
<path d="M10.4167 0.193234C12.4467 0.183859 14.4774 0.191984 16.508 0.188859C18.188 0.195109 19.8692 0.175734 21.5486 0.198234C21.5817 0.261984 21.6155 0.325109 21.6511 0.388234C21.6561 0.396359 21.6655 0.413859 21.6705 0.422609C21.833 0.705734 21.998 0.987609 22.1586 1.27136C22.1617 1.27636 22.1667 1.28573 22.1699 1.29011C22.4811 1.82448 22.7911 2.35948 23.0967 2.89698C23.0992 2.90136 23.1049 2.91011 23.1074 2.91511C23.163 3.01073 23.2205 3.10636 23.2774 3.20261C23.2824 3.21073 23.2917 3.22761 23.2967 3.23636C23.3749 3.37386 23.4536 3.51073 23.533 3.64761C23.5361 3.65198 23.5411 3.66073 23.5436 3.66573C23.623 3.80198 23.7011 3.93948 23.7799 4.07698C23.7849 4.08511 23.7942 4.10136 23.7992 4.10948C23.8786 4.24323 23.9555 4.37823 24.0317 4.51323C24.0367 4.52136 24.0461 4.53823 24.0511 4.54636C24.7974 5.83511 25.5417 7.12448 26.2855 8.41511C26.2005 8.78948 26.4061 9.16198 26.2917 9.53823C26.2224 10.5664 25.8342 11.567 25.1942 12.3745C24.9861 12.6001 25.188 12.9132 25.1655 13.1807C24.9411 13.4526 24.6524 13.6557 24.3799 13.8751C24.3805 14.0801 24.3811 14.2851 24.3717 14.4907C24.1286 14.6514 23.8499 14.7445 23.603 14.8995C23.5767 14.9826 23.5499 15.0664 23.5242 15.1507C23.3261 15.2445 23.1142 15.3051 22.9161 15.4001C22.1317 15.1751 21.3555 14.9245 20.573 14.6926C19.8449 14.452 19.0992 14.2632 18.3786 13.9982L18.3374 13.9245C18.3336 13.9189 18.3274 13.9076 18.3242 13.902L18.2649 13.8014C18.2586 13.7907 18.2461 13.7695 18.2399 13.7589C18.2342 13.7495 18.2242 13.7314 18.2186 13.722C18.1742 13.6432 18.1336 13.5626 18.0974 13.4801L18.0936 13.472L18.0892 13.4657C18.0617 13.422 18.0061 13.3339 17.978 13.2901C17.9749 13.2851 17.9686 13.2751 17.9655 13.2695L17.9474 13.2407C17.9367 13.2226 17.9149 13.187 17.9042 13.1689C17.8774 13.1232 17.823 13.032 17.7961 12.9864C17.7892 12.9751 17.7761 12.952 17.7692 12.9407L17.7311 12.8757C17.7261 12.867 17.7161 12.8501 17.7111 12.8414L17.6505 12.737C17.648 12.7326 17.6424 12.7239 17.6399 12.7189L17.5761 12.6095C17.5705 12.5995 17.5592 12.5795 17.5536 12.5701C17.5474 12.5589 17.5342 12.5357 17.528 12.5245L17.4761 12.4332C17.4699 12.4226 17.4574 12.4001 17.4511 12.3895L17.4111 12.3189C17.4055 12.3095 17.3949 12.2907 17.3892 12.2814C17.3649 12.2364 17.3155 12.147 17.2905 12.102C17.288 12.097 17.2817 12.0864 17.2792 12.0814L17.2624 12.052C17.2505 12.0345 17.2274 11.9995 17.2155 11.982C17.1536 11.8782 17.0955 11.772 17.0399 11.6651C17.0367 11.6601 17.0311 11.6495 17.0286 11.6445L17.0124 11.6157C17.0005 11.5989 16.9767 11.5651 16.9649 11.5489C16.9374 11.4995 16.8824 11.4007 16.8549 11.3514C16.8517 11.3464 16.8455 11.3357 16.843 11.3301L16.8261 11.3001C16.8136 11.2795 16.7892 11.2389 16.7767 11.2182L16.723 11.1276C16.718 11.1189 16.7074 11.1014 16.7017 11.092C16.678 11.0507 16.6299 10.9676 16.6055 10.9264C16.5999 10.917 16.5892 10.8976 16.5836 10.8876C16.5411 10.817 16.5005 10.7457 16.4605 10.6745C16.4574 10.6689 16.4505 10.6576 16.4474 10.652L16.388 10.5501C16.3817 10.5401 16.3699 10.5201 16.3642 10.5095C16.3586 10.5001 16.348 10.4814 16.3424 10.472L16.2792 10.362C16.2761 10.357 16.2705 10.3464 16.2674 10.3414L16.2161 10.2495C16.2117 10.242 16.2036 10.2276 16.1992 10.2201C16.1755 10.1782 16.1274 10.0951 16.1036 10.0532C16.0986 10.0445 16.0886 10.0276 16.0836 10.0195C16.0449 9.95511 16.0061 9.89011 15.9686 9.82573C14.2355 6.81823 12.4999 3.81261 10.763 0.806984C10.6542 0.619484 10.5555 0.424484 10.4224 0.251984L10.4192 0.223859L10.4167 0.193234Z" fill="#FCCD48"/>
<path d="M10.3843 0.225249L10.4193 0.223999L10.4224 0.252124L10.3787 0.258999L10.3843 0.225249Z" fill="#089156"/>
<path d="M10.4225 0.252197C10.5556 0.424697 10.6544 0.619697 10.7631 0.807197C12.5 3.81282 14.2356 6.81845 15.9687 9.82595C15.1662 11.2234 14.3575 12.6178 13.5519 14.0141C13.4437 13.3453 13.2419 12.6966 13.1131 12.0316C12.9137 11.3184 12.8031 10.5841 12.5969 9.8722C12.3594 8.7222 12.07 7.5822 11.8106 6.43657C11.415 4.76595 11.035 3.09157 10.6587 1.41595C10.5712 1.03032 10.455 0.648447 10.4225 0.252197Z" fill="#089156"/>
<path d="M10.2743 0.412051C10.2762 0.408926 10.2805 0.402051 10.2824 0.398926C10.2805 0.402051 10.2762 0.408926 10.2743 0.412051Z" fill="#089156"/>
<path d="M10.2043 0.53082C10.2075 0.526445 10.2125 0.51707 10.215 0.512695C10.2125 0.51707 10.2075 0.526445 10.2043 0.53082Z" fill="#089156"/>
<path d="M10.1193 0.682837C10.1249 0.672212 10.1361 0.652212 10.1418 0.642212C10.1361 0.652212 10.1249 0.672212 10.1193 0.682837Z" fill="#089156"/>
<path d="M10.0974 0.720239C10.1024 0.710864 10.1137 0.692114 10.1193 0.682739C10.1137 0.692114 10.1024 0.710864 10.0974 0.720239Z" fill="#089156"/>
<path d="M10.0236 0.846509C10.0261 0.841509 10.0311 0.832759 10.0336 0.827759C10.0311 0.832759 10.0261 0.841509 10.0236 0.846509Z" fill="#089156"/>
<path d="M9.95679 0.989585C9.95991 0.979585 9.96554 0.959585 9.96866 0.949585C9.96554 0.959585 9.95991 0.979585 9.95679 0.989585Z" fill="#089156"/>
<path d="M9.86926 1.129C9.89114 1.094 9.93489 1.02462 9.95676 0.989624C9.93489 1.02462 9.89114 1.094 9.86926 1.129Z" fill="#089156"/>
<path d="M9.83545 1.17778C9.8442 1.1659 9.86045 1.14153 9.8692 1.12903C9.86045 1.14153 9.8442 1.1659 9.83545 1.17778Z" fill="#089156"/>
<path d="M9.7699 1.28345C9.77427 1.27595 9.78365 1.26032 9.78802 1.2522C9.78365 1.26032 9.77427 1.27595 9.7699 1.28345Z" fill="#089156"/>
<path d="M9.7074 1.42775C9.70927 1.41713 9.71427 1.39588 9.71677 1.38525C9.71427 1.39588 9.70927 1.41713 9.7074 1.42775Z" fill="#089156"/>
<path d="M9.61609 1.56523C9.63921 1.53086 9.68421 1.46211 9.70734 1.42773C9.68421 1.46211 9.63921 1.53086 9.61609 1.56523Z" fill="#089156"/>
<path d="M9.58423 1.61343C9.59235 1.60156 9.6086 1.57718 9.6161 1.56531C9.6086 1.57718 9.59235 1.60156 9.58423 1.61343Z" fill="#089156"/>
<path d="M9.51868 1.72144C9.52243 1.71457 9.52993 1.70144 9.53368 1.69519C9.52993 1.70144 9.52243 1.71457 9.51868 1.72144Z" fill="#089156"/>
<path d="M9.43372 1.8709C9.43997 1.86027 9.45247 1.8384 9.45872 1.82715C9.45247 1.8384 9.43997 1.86027 9.43372 1.8709Z" fill="#089156"/>
<path d="M9.41113 1.9096C9.41676 1.8996 9.42801 1.88085 9.43363 1.87085C9.42801 1.88085 9.41676 1.8996 9.41113 1.9096Z" fill="#089156"/>
<path d="M9.33679 2.03462C9.33992 2.03024 9.34554 2.02087 9.34804 2.01587C9.34554 2.02087 9.33992 2.03024 9.33679 2.03462Z" fill="#089156"/>
<path d="M9.26807 2.1546C9.27057 2.15022 9.27557 2.14147 9.27807 2.13647C9.27557 2.14147 9.27057 2.15022 9.26807 2.1546Z" fill="#089156"/>
<path d="M9.18115 2.30529C9.1874 2.29529 9.19928 2.27404 9.20553 2.26404C9.19928 2.27404 9.1874 2.29529 9.18115 2.30529Z" fill="#089156"/>
<path d="M9.15686 2.34705C9.16311 2.33643 9.17499 2.3158 9.18124 2.30518C9.17499 2.3158 9.16311 2.33643 9.15686 2.34705Z" fill="#089156"/>
<path d="M9.08484 2.47085C9.08671 2.46648 9.09171 2.45835 9.09421 2.45398C9.09171 2.45835 9.08671 2.46648 9.08484 2.47085Z" fill="#089156"/>
<path d="M9.0199 2.61708C9.0224 2.60646 9.02802 2.58521 9.03052 2.57458C9.02802 2.58521 9.0224 2.60646 9.0199 2.61708Z" fill="#089156"/>
<path d="M8.92859 2.75644C8.95109 2.72144 8.99671 2.65144 9.01984 2.61707C8.99671 2.65144 8.95109 2.72144 8.92859 2.75644Z" fill="#089156"/>
<path d="M8.89795 2.80397C8.90545 2.79209 8.92045 2.76834 8.92857 2.75647C8.92045 2.76834 8.90545 2.79209 8.89795 2.80397Z" fill="#089156"/>
<path d="M8.81921 2.9459C8.82859 2.92777 8.84671 2.89215 8.85546 2.87402C8.84671 2.89215 8.82859 2.92777 8.81921 2.9459Z" fill="#089156"/>
<path d="M8.7561 3.06149C8.76423 3.04899 8.77985 3.02336 8.78735 3.01086C8.77985 3.02336 8.76423 3.04899 8.7561 3.06149Z" fill="#089156"/>
<path d="M8.72119 3.11027C8.72994 3.09777 8.74744 3.07402 8.75619 3.06152C8.74744 3.07402 8.72994 3.09777 8.72119 3.11027Z" fill="#089156"/>
<path d="M8.64856 3.22338C8.65668 3.21088 8.67231 3.18463 8.67981 3.17151C8.67231 3.18463 8.65668 3.21088 8.64856 3.22338Z" fill="#089156"/>
<path d="M8.56677 3.38527C8.57365 3.3709 8.58802 3.34152 8.5949 3.32715C8.58802 3.34152 8.57365 3.3709 8.56677 3.38527Z" fill="#089156"/>
<path d="M8.50549 3.49958C8.51299 3.48708 8.52862 3.46208 8.53612 3.44958C8.52862 3.46208 8.51299 3.48708 8.50549 3.49958Z" fill="#089156"/>
<path d="M8.47058 3.54713C8.47933 3.53526 8.49683 3.51151 8.50558 3.49963C8.49683 3.51151 8.47933 3.53526 8.47058 3.54713Z" fill="#089156"/>
<path d="M8.38757 3.68208C8.39757 3.66333 8.41882 3.62521 8.42945 3.60583C8.41882 3.62521 8.39757 3.66333 8.38757 3.68208Z" fill="#089156"/>
<path d="M8.33057 3.8034C8.33682 3.7909 8.34807 3.76653 8.35432 3.75403C8.34807 3.76653 8.33682 3.7909 8.33057 3.8034Z" fill="#089156"/>
<path d="M8.245 3.94147C8.26625 3.90647 8.30937 3.83772 8.33062 3.80334C8.30937 3.83772 8.26625 3.90647 8.245 3.94147Z" fill="#089156"/>
<path d="M8.21045 3.99153C8.2192 3.97903 8.23607 3.95403 8.24482 3.94153C8.23607 3.95403 8.2192 3.97903 8.21045 3.99153Z" fill="#089156"/>
<path d="M8.14612 4.09837C8.15049 4.09087 8.15924 4.07525 8.16362 4.06775C8.15924 4.07525 8.15049 4.09087 8.14612 4.09837Z" fill="#089156"/>
<path d="M8.07629 4.23898C8.08004 4.23023 8.08879 4.21273 8.09317 4.20398C8.08879 4.21273 8.08004 4.23023 8.07629 4.23898Z" fill="#089156"/>
<path d="M7.98743 4.39151C8.0093 4.35339 8.05368 4.27714 8.07618 4.23901L8.08055 4.31214C8.05743 4.33214 8.01055 4.37214 7.98743 4.39151Z" fill="#089156"/>
<path d="M7.96301 4.42585C7.96926 4.4171 7.98114 4.40023 7.98739 4.39148C7.98114 4.40023 7.96926 4.4171 7.96301 4.42585Z" fill="#089156"/>
<path d="M7.88293 4.5715C7.89418 4.54712 7.91731 4.49837 7.92856 4.474C7.91731 4.49837 7.89418 4.54712 7.88293 4.5715Z" fill="#089156"/>
<path d="M7.81799 4.68647C7.82549 4.67397 7.84112 4.64897 7.84924 4.63647C7.84112 4.64897 7.82549 4.67397 7.81799 4.68647Z" fill="#089156"/>
<path d="M7.78369 4.73527C7.79244 4.72277 7.80932 4.6984 7.81807 4.68652C7.80932 4.6984 7.79244 4.72277 7.78369 4.73527Z" fill="#089156"/>
<path d="M7.71179 4.84713C7.71929 4.83463 7.73492 4.80901 7.74304 4.79651C7.73492 4.80901 7.71929 4.83463 7.71179 4.84713Z" fill="#089156"/>
<path d="M7.63684 4.9784C7.64059 4.97215 7.64809 4.9584 7.65184 4.95215C7.64809 4.9584 7.64059 4.97215 7.63684 4.9784Z" fill="#089156"/>
<path d="M7.57117 5.09652C7.57617 5.08777 7.58617 5.07027 7.59117 5.06152C7.58617 5.07027 7.57617 5.08777 7.57117 5.09652Z" fill="#089156"/>
<path d="M7.45312 5.29841C7.45812 5.29029 7.46812 5.27279 7.47312 5.26404C7.46812 5.27279 7.45812 5.29029 7.45312 5.29841Z" fill="#089156"/>
<path d="M7.38684 5.41399C7.39247 5.40399 7.40372 5.38462 7.40934 5.37524C7.40372 5.38462 7.39247 5.40399 7.38684 5.41399Z" fill="#089156"/>
<path d="M7.30615 5.55461C7.31303 5.54273 7.32678 5.51836 7.33428 5.50586C7.32678 5.51836 7.31303 5.54273 7.30615 5.55461Z" fill="#089156"/>
<path d="M7.28125 5.59644C7.2875 5.58644 7.3 5.56519 7.30625 5.55457C7.3 5.56519 7.2875 5.58644 7.28125 5.59644Z" fill="#089156"/>
<path d="M7.20862 5.71904C7.21112 5.71466 7.21612 5.70591 7.21862 5.70154C7.21612 5.70591 7.21112 5.71466 7.20862 5.71904Z" fill="#089156"/>
<path d="M7.1449 5.86712C7.1474 5.85586 7.15177 5.83399 7.15427 5.82336C7.15177 5.83399 7.1474 5.85586 7.1449 5.86712Z" fill="#089156"/>
<path d="M7.05359 6.0027C7.07609 5.96894 7.12171 5.90082 7.14484 5.86707C7.12171 5.90082 7.07609 5.96894 7.05359 6.0027Z" fill="#089156"/>
<path d="M7.02112 6.05156C7.02924 6.03968 7.04549 6.01531 7.05362 6.00281C7.04549 6.01531 7.02924 6.03968 7.02112 6.05156Z" fill="#089156"/>
<path d="M6.9574 6.15524C6.96177 6.14774 6.97052 6.13274 6.9749 6.12524C6.97052 6.13274 6.96177 6.14774 6.9574 6.15524Z" fill="#089156"/>
<path d="M6.87061 6.30963C6.87686 6.29838 6.88936 6.27651 6.89561 6.26526C6.88936 6.27651 6.87686 6.29838 6.87061 6.30963Z" fill="#089156"/>
<path d="M6.84741 6.34832C6.85304 6.33895 6.86429 6.31895 6.87054 6.30957C6.86429 6.31895 6.85304 6.33895 6.84741 6.34832Z" fill="#089156"/>
<path d="M6.7749 6.47148C6.7774 6.4671 6.7824 6.45835 6.78553 6.45398C6.7824 6.45835 6.7774 6.4671 6.7749 6.47148Z" fill="#089156"/>
<path d="M6.70557 6.59091C6.70744 6.58716 6.71182 6.58029 6.71369 6.57654C6.71182 6.58029 6.70744 6.58716 6.70557 6.59091Z" fill="#089156"/>
<path d="M13.3762 14.3034C13.3868 14.2859 13.4093 14.2509 13.42 14.234C13.4093 14.2509 13.3868 14.2859 13.3762 14.3034Z" fill="#089156"/>
<path d="M13.3486 14.3522C13.3518 14.3472 13.3574 14.3365 13.3599 14.3315C13.3574 14.3365 13.3518 14.3472 13.3486 14.3522Z" fill="#089156"/>
<path d="M13.2325 14.5634C13.2375 14.5553 13.2469 14.539 13.2513 14.5309C13.2469 14.539 13.2375 14.5553 13.2325 14.5634Z" fill="#089156"/>
<path d="M13.1669 14.6791C13.1719 14.6697 13.1825 14.6516 13.1881 14.6422C13.1825 14.6516 13.1719 14.6697 13.1669 14.6791Z" fill="#089156"/>
<path d="M13.1036 14.7897C13.1068 14.7847 13.1124 14.7747 13.1149 14.7697C13.1124 14.7747 13.1068 14.7847 13.1036 14.7897Z" fill="#089156"/>
<path d="M13.0168 14.9415C13.0225 14.9315 13.0337 14.9115 13.0393 14.9021C13.0337 14.9115 13.0225 14.9315 13.0168 14.9415Z" fill="#089156"/>
<path d="M12.9917 14.9834C12.9979 14.9728 13.0104 14.9522 13.0167 14.9415C13.0104 14.9522 12.9979 14.9728 12.9917 14.9834Z" fill="#089156"/>
<path d="M12.9087 15.1259C12.9137 15.1178 12.9237 15.1003 12.9287 15.0922C12.9237 15.1003 12.9137 15.1178 12.9087 15.1259Z" fill="#089156"/>
<path d="M12.8438 15.2372C12.85 15.2259 12.8637 15.2028 12.87 15.1915C12.8637 15.2028 12.85 15.2259 12.8438 15.2372Z" fill="#089156"/>
<path d="M12.7261 15.4415C12.7304 15.4334 12.7398 15.4178 12.7442 15.4103C12.7398 15.4178 12.7304 15.4334 12.7261 15.4415Z" fill="#089156"/>
<path d="M12.6599 15.5533C12.6668 15.5415 12.6805 15.519 12.6868 15.5071C12.6805 15.519 12.6668 15.5415 12.6599 15.5533Z" fill="#089156"/>
<path d="M12.5444 15.7533C12.5501 15.744 12.5607 15.7246 12.5663 15.7152C12.5607 15.7246 12.5501 15.744 12.5444 15.7533Z" fill="#089156"/>
<path d="M12.48 15.8684C12.4844 15.8609 12.4931 15.8453 12.4975 15.8378C12.4931 15.8453 12.4844 15.8609 12.48 15.8684Z" fill="#089156"/>
<path d="M12.4117 15.9878C12.4167 15.979 12.4267 15.9615 12.4317 15.9528C12.4267 15.9615 12.4167 15.979 12.4117 15.9878Z" fill="#089156"/>
<path d="M12.2911 16.1927C12.2968 16.1827 12.308 16.1633 12.3136 16.1539C12.308 16.1633 12.2968 16.1827 12.2911 16.1927Z" fill="#089156"/>
<path d="M12.2306 16.3022C12.2343 16.2947 12.2425 16.2803 12.2468 16.2728C12.2425 16.2803 12.2343 16.2947 12.2306 16.3022Z" fill="#089156"/>
<path d="M12.1611 16.4221C12.1655 16.4146 12.1749 16.399 12.1793 16.3909C12.1749 16.399 12.1655 16.4146 12.1611 16.4221Z" fill="#089156"/>
<path d="M12.0374 16.6341C12.0424 16.6259 12.0524 16.6097 12.0567 16.6016C12.0524 16.6097 12.0424 16.6259 12.0374 16.6341Z" fill="#089156"/>
<path d="M11.9742 16.7403C11.9805 16.729 11.9936 16.7072 11.9999 16.6959C11.9936 16.7072 11.9805 16.729 11.9742 16.7403Z" fill="#089156"/>
<path d="M11.8636 16.9334C11.8674 16.9265 11.8761 16.9115 11.8799 16.9047C11.8761 16.9115 11.8674 16.9265 11.8636 16.9334Z" fill="#089156"/>
<path d="M11.7975 17.0515C11.8012 17.0447 11.8087 17.0315 11.8125 17.0247C11.8087 17.0315 11.8012 17.0447 11.7975 17.0515Z" fill="#089156"/>
<path d="M11.7274 17.1721C11.7318 17.1652 11.7405 17.1502 11.7449 17.1433C11.7405 17.1502 11.7318 17.1652 11.7274 17.1721Z" fill="#089156"/>
<path d="M11.603 17.3803C11.6099 17.3691 11.6224 17.3466 11.6293 17.3359C11.6224 17.3466 11.6099 17.3691 11.603 17.3803Z" fill="#089156"/>
<path d="M11.5475 17.4834C11.5519 17.4752 11.5612 17.4577 11.5662 17.449C11.5612 17.4577 11.5519 17.4752 11.5475 17.4834Z" fill="#089156"/>
<path d="M11.4618 17.6321C11.4668 17.6227 11.478 17.604 11.483 17.5946C11.478 17.604 11.4668 17.6227 11.4618 17.6321Z" fill="#089156"/>
<path d="M11.4412 17.6678C11.4462 17.6591 11.4562 17.641 11.4618 17.6322C11.4562 17.641 11.4462 17.6591 11.4412 17.6678Z" fill="#089156"/>
<path d="M21.6509 0.388306C21.6559 0.396431 21.6653 0.413931 21.6703 0.422681C21.6653 0.413931 21.6559 0.396431 21.6509 0.388306Z" fill="#10985B"/>
<path d="M22.1583 1.27148C22.1615 1.27648 22.1664 1.28586 22.1696 1.29023C22.1664 1.28586 22.1615 1.27648 22.1583 1.27148Z" fill="#10985B"/>
<path d="M23.0964 2.89709C23.0989 2.90147 23.1046 2.91022 23.1071 2.91522C23.1046 2.91022 23.0989 2.90147 23.0964 2.89709Z" fill="#10985B"/>
<path d="M23.2771 3.20264C23.2821 3.21076 23.2915 3.22764 23.2965 3.23639C23.2915 3.22764 23.2821 3.21076 23.2771 3.20264Z" fill="#10985B"/>
<path d="M23.5327 3.64771C23.5358 3.65208 23.5408 3.66083 23.5433 3.66583C23.5408 3.66083 23.5358 3.65208 23.5327 3.64771Z" fill="#10985B"/>
<path d="M23.7795 4.07703C23.7845 4.08515 23.7939 4.1014 23.7989 4.10953C23.7939 4.1014 23.7845 4.08515 23.7795 4.07703Z" fill="#10985B"/>
<path d="M24.0315 4.51331C24.0365 4.52143 24.0459 4.53831 24.0509 4.54643C24.0459 4.53831 24.0365 4.52143 24.0315 4.51331Z" fill="#10985B"/>
<path d="M26.2854 8.41516C27.3723 10.2983 28.466 12.1783 29.5441 14.067C29.5491 14.0752 29.5591 14.0927 29.5641 14.1008C29.5891 14.142 29.6391 14.2239 29.6635 14.2645C29.6685 14.2727 29.6785 14.2895 29.6835 14.2977L29.7335 14.3833C29.7366 14.3889 29.7429 14.4008 29.7466 14.4064L29.8091 14.5152C29.8154 14.5258 29.8273 14.5477 29.8335 14.5583C29.8391 14.5677 29.8504 14.587 29.856 14.597L29.9173 14.7033C29.9198 14.7077 29.9248 14.7164 29.9273 14.7208L29.9885 14.8258C29.991 14.8302 29.996 14.8383 29.9985 14.8427L30.0598 14.9489C30.066 14.9595 30.0779 14.9802 30.0841 14.9908C30.0898 15.0014 30.1016 15.022 30.1073 15.032L30.1704 15.1433C30.1791 15.1652 30.1966 15.2077 30.2054 15.2289L30.2229 15.2633L30.231 15.2814L30.2448 15.2995L30.2816 15.3552C30.2948 15.3758 30.3204 15.417 30.3335 15.4377C30.341 15.4502 30.3573 15.4752 30.3648 15.4877L30.406 15.5533C30.4185 15.5814 30.4435 15.6383 30.456 15.6664L30.4748 15.7002L30.4816 15.7133L30.4873 15.7214C30.5148 15.762 30.5691 15.8439 30.5966 15.8845C30.6035 15.8958 30.6173 15.9183 30.6248 15.9295L30.6623 15.992C30.6679 16.002 30.6791 16.0214 30.6848 16.0308L30.7479 16.1414C30.7535 16.1514 30.7648 16.1714 30.7704 16.1814C30.776 16.1914 30.7873 16.2108 30.7929 16.2208L30.8554 16.3276C30.8579 16.3326 30.8635 16.342 30.8666 16.3464L30.9235 16.4464C30.9273 16.4527 30.9348 16.4658 30.9385 16.472L30.996 16.5726C31.0029 16.5839 31.016 16.607 31.0229 16.6183C31.0285 16.6283 31.0404 16.6483 31.046 16.6583C31.0923 16.7351 31.1366 16.8133 31.1779 16.8933C31.1841 16.9064 31.1966 16.9326 31.2023 16.9458L31.231 17.0108C31.2385 17.0233 31.2535 17.0489 31.2604 17.0614C31.2698 17.0739 31.2879 17.0976 31.2973 17.1095L31.3404 17.1708C31.3479 17.1826 31.3629 17.2064 31.371 17.2189L31.4341 17.3283C31.4398 17.3383 31.451 17.3583 31.4566 17.3683C31.4623 17.3783 31.4735 17.3976 31.4798 17.4076L31.5423 17.5151C31.5448 17.5201 31.5498 17.5289 31.5523 17.5333L31.6116 17.637C31.6141 17.6414 31.6191 17.6495 31.6216 17.6539L31.6823 17.7595C31.6885 17.7701 31.701 17.7914 31.7073 17.8026C31.7135 17.8133 31.726 17.8345 31.7316 17.8451L31.7941 17.9526C31.7966 17.957 31.801 17.9658 31.8035 17.9701L31.8698 18.0939L31.8691 18.1501C30.3054 17.7008 28.7666 17.1676 27.1985 16.7345C25.7754 16.2752 24.3391 15.857 22.916 15.4002C23.1141 15.3052 23.326 15.2445 23.5241 15.1508C23.5498 15.0664 23.5766 14.9827 23.6029 14.8995C23.8498 14.7445 24.1285 14.6514 24.3716 14.4908C24.381 14.2852 24.3804 14.0802 24.3798 13.8752C24.6523 13.6558 24.941 13.4527 25.1654 13.1808C25.1879 12.9133 24.986 12.6002 25.1941 12.3745C25.8341 11.567 26.2223 10.5664 26.2916 9.53828C26.406 9.16204 26.2004 8.78954 26.2854 8.41516Z" fill="#F9C941"/>
<path d="M31.8691 18.1501L31.9016 18.1514L31.9198 18.1989L31.8829 18.2014L31.8691 18.1501Z" fill="#F9C941"/>
<path d="M16.0835 10.0194C16.0885 10.0275 16.0985 10.0444 16.1035 10.0532C16.0985 10.0444 16.0885 10.0275 16.0835 10.0194Z" fill="#E3B73A"/>
<path d="M16.1991 10.2201C16.2035 10.2276 16.2116 10.242 16.216 10.2495C16.2116 10.242 16.2035 10.2276 16.1991 10.2201Z" fill="#E3B73A"/>
<path d="M16.2673 10.3413C16.2705 10.3463 16.2761 10.3569 16.2792 10.3619C16.2761 10.3569 16.2705 10.3463 16.2673 10.3413Z" fill="#E3B73A"/>
<path d="M16.3423 10.4719C16.3479 10.4813 16.3585 10.5 16.3642 10.5094C16.3585 10.5 16.3479 10.4813 16.3423 10.4719Z" fill="#E3B73A"/>
<path d="M16.3641 10.5094C16.3698 10.52 16.3816 10.54 16.3879 10.55C16.3816 10.54 16.3698 10.52 16.3641 10.5094Z" fill="#E3B73A"/>
<path d="M16.4471 10.6519C16.4503 10.6575 16.4571 10.6687 16.4603 10.6744C16.4571 10.6687 16.4503 10.6575 16.4471 10.6519Z" fill="#E3B73A"/>
<path d="M16.5835 10.8876C16.5891 10.8976 16.5997 10.9169 16.6054 10.9263C16.5997 10.9169 16.5891 10.8976 16.5835 10.8876Z" fill="#E3B73A"/>
<path d="M16.7017 11.0919C16.7073 11.1013 16.7179 11.1188 16.7229 11.1275C16.7179 11.1188 16.7073 11.1013 16.7017 11.0919Z" fill="#E3B73A"/>
<path d="M16.7765 11.2181C16.789 11.2388 16.8134 11.2794 16.8259 11.3C16.8134 11.2794 16.789 11.2388 16.7765 11.2181Z" fill="#E3B73A"/>
<path d="M16.8429 11.3301C16.8454 11.3357 16.8516 11.3463 16.8548 11.3513C16.8516 11.3463 16.8454 11.3357 16.8429 11.3301Z" fill="#E3B73A"/>
<path d="M16.9647 11.5488C16.9766 11.5651 17.0003 11.5988 17.0122 11.6157C17.0003 11.5988 16.9766 11.5651 16.9647 11.5488Z" fill="#E3B73A"/>
<path d="M17.0286 11.6444C17.0311 11.6494 17.0367 11.66 17.0398 11.665C17.0367 11.66 17.0311 11.6494 17.0286 11.6444Z" fill="#E3B73A"/>
<path d="M17.2153 11.9819C17.2272 11.9994 17.2503 12.0344 17.2622 12.0519C17.2503 12.0344 17.2272 11.9994 17.2153 11.9819Z" fill="#E3B73A"/>
<path d="M17.2791 12.0813C17.2816 12.0863 17.2878 12.0969 17.2903 12.1019C17.2878 12.0969 17.2816 12.0863 17.2791 12.0813Z" fill="#E3B73A"/>
<path d="M17.3892 12.2814C17.3948 12.2907 17.4054 12.3095 17.411 12.3189C17.4054 12.3095 17.3948 12.2907 17.3892 12.2814Z" fill="#E3B73A"/>
<path d="M17.4509 12.3894C17.4572 12.4 17.4697 12.4225 17.4759 12.4332C17.4697 12.4225 17.4572 12.4 17.4509 12.3894Z" fill="#E3B73A"/>
<path d="M17.5278 12.5244C17.5341 12.5357 17.5472 12.5588 17.5535 12.57C17.5472 12.5588 17.5341 12.5357 17.5278 12.5244Z" fill="#E3B73A"/>
<path d="M17.5535 12.5699C17.5591 12.5793 17.5703 12.5993 17.576 12.6093C17.5703 12.5993 17.5591 12.5793 17.5535 12.5699Z" fill="#E3B73A"/>
<path d="M17.6398 12.7189C17.6423 12.7239 17.6479 12.7326 17.6504 12.737C17.6479 12.7326 17.6423 12.7239 17.6398 12.7189Z" fill="#E3B73A"/>
<path d="M17.7109 12.8413C17.7159 12.8501 17.7259 12.8669 17.7309 12.8757C17.7259 12.8669 17.7159 12.8501 17.7109 12.8413Z" fill="#E3B73A"/>
<path d="M17.7692 12.9407C17.776 12.9519 17.7892 12.975 17.796 12.9863C17.7892 12.975 17.776 12.9519 17.7692 12.9407Z" fill="#E3B73A"/>
<path d="M17.9041 13.1688C17.9147 13.1869 17.9366 13.2226 17.9472 13.2407C17.9366 13.2226 17.9147 13.1869 17.9041 13.1688Z" fill="#E3B73A"/>
<path d="M17.9653 13.2694C17.9685 13.275 17.9747 13.285 17.9778 13.29C17.9747 13.285 17.9685 13.275 17.9653 13.2694Z" fill="#E3B73A"/>
<path d="M18.089 13.4657L18.0934 13.4719L18.0971 13.4801C18.0952 13.4763 18.0909 13.4694 18.089 13.4657Z" fill="#E3B73A"/>
<path d="M18.2186 13.7219C18.2243 13.7313 18.2343 13.7494 18.2399 13.7588C18.2343 13.7494 18.2243 13.7313 18.2186 13.7219Z" fill="#E3B73A"/>
<path d="M18.2397 13.7588C18.246 13.7694 18.2585 13.7907 18.2647 13.8013C18.2585 13.7907 18.246 13.7694 18.2397 13.7588Z" fill="#E3B73A"/>
<path d="M18.3241 13.9019C18.3272 13.9075 18.3335 13.9187 18.3372 13.9244C18.3335 13.9187 18.3272 13.9075 18.3241 13.9019Z" fill="#E3B73A"/>
<path d="M18.3785 13.9982C19.0992 14.2632 19.8448 14.4519 20.5729 14.6925C21.3554 14.9244 22.1317 15.175 22.916 15.4C24.3392 15.8569 25.7754 16.275 27.1985 16.7344C27.1773 17.0388 27.2373 17.3507 27.1617 17.6494C27.1035 17.94 26.756 17.9857 26.6129 18.2175C24.6898 18.2182 22.7673 18.2238 20.8448 18.2157L20.8035 18.2125C20.0092 16.8 19.1829 15.405 18.3785 13.9982Z" fill="#E3B73A"/>
<path d="M29.5443 14.067C29.5493 14.0751 29.5593 14.0926 29.5643 14.1008C29.5593 14.0926 29.5493 14.0751 29.5443 14.067Z" fill="#E8B835"/>
<path d="M29.6636 14.2645C29.6686 14.2727 29.6786 14.2895 29.6836 14.2977C29.6786 14.2895 29.6686 14.2727 29.6636 14.2645Z" fill="#E8B835"/>
<path d="M29.7338 14.3832C29.7369 14.3888 29.7431 14.4007 29.7469 14.4063C29.7431 14.4007 29.7369 14.3888 29.7338 14.3832Z" fill="#E8B835"/>
<path d="M29.8093 14.5151C29.8156 14.5258 29.8274 14.5476 29.8337 14.5583C29.8274 14.5476 29.8156 14.5258 29.8093 14.5151Z" fill="#E8B835"/>
<path d="M29.8336 14.5582C29.8392 14.5676 29.8505 14.587 29.8561 14.597C29.8505 14.587 29.8392 14.5676 29.8336 14.5582Z" fill="#E8B835"/>
<path d="M29.9174 14.7034C29.9199 14.7077 29.9249 14.7165 29.9274 14.7209C29.9249 14.7165 29.9199 14.7077 29.9174 14.7034Z" fill="#E8B835"/>
<path d="M29.9886 14.8257C29.9911 14.8301 29.9961 14.8382 29.9986 14.8426C29.9961 14.8382 29.9911 14.8301 29.9886 14.8257Z" fill="#E8B835"/>
<path d="M30.0599 14.9489C30.0662 14.9595 30.0781 14.9801 30.0843 14.9907C30.0781 14.9801 30.0662 14.9595 30.0599 14.9489Z" fill="#E8B835"/>
<path d="M30.0842 14.9907C30.0899 15.0013 30.1017 15.022 30.1074 15.032C30.1017 15.022 30.0899 15.0013 30.0842 14.9907Z" fill="#E8B835"/>
<path d="M30.1705 15.1433C30.1793 15.1652 30.1968 15.2077 30.2055 15.2289C30.1968 15.2077 30.1793 15.1652 30.1705 15.1433Z" fill="#E8B835"/>
<path d="M30.223 15.2632C30.2286 15.2726 30.2393 15.2907 30.2449 15.2994L30.2311 15.2813L30.223 15.2632Z" fill="#E8B835"/>
<path d="M30.2819 15.3551C30.295 15.3757 30.3206 15.417 30.3337 15.4376C30.3206 15.417 30.295 15.3757 30.2819 15.3551Z" fill="#E8B835"/>
<path d="M30.3336 15.4377C30.3411 15.4502 30.3574 15.4752 30.3649 15.4877C30.3574 15.4752 30.3411 15.4502 30.3336 15.4377Z" fill="#E8B835"/>
<path d="M30.4062 15.5532C30.4187 15.5813 30.4437 15.6382 30.4562 15.6663C30.4437 15.6382 30.4187 15.5813 30.4062 15.5532Z" fill="#E8B835"/>
<path d="M30.4749 15.7002C30.478 15.7058 30.4842 15.7164 30.4874 15.7214L30.4817 15.7133L30.4749 15.7002Z" fill="#E8B835"/>
<path d="M30.5968 15.8845C30.6037 15.8958 30.6174 15.9183 30.6249 15.9295C30.6174 15.9183 30.6037 15.8958 30.5968 15.8845Z" fill="#E8B835"/>
<path d="M30.6624 15.9919C30.668 16.0019 30.6792 16.0213 30.6849 16.0307C30.6792 16.0213 30.668 16.0019 30.6624 15.9919Z" fill="#E8B835"/>
<path d="M30.7482 16.1415C30.7538 16.1515 30.765 16.1715 30.7707 16.1815C30.765 16.1715 30.7538 16.1515 30.7482 16.1415Z" fill="#E8B835"/>
<path d="M30.7705 16.1814C30.7761 16.1914 30.7874 16.2108 30.793 16.2208C30.7874 16.2108 30.7761 16.1914 30.7705 16.1814Z" fill="#E8B835"/>
<path d="M30.8556 16.3276C30.8581 16.3326 30.8637 16.342 30.8668 16.3464C30.8637 16.342 30.8581 16.3326 30.8556 16.3276Z" fill="#E8B835"/>
<path d="M30.9237 16.4463C30.9275 16.4525 30.935 16.4657 30.9387 16.4719C30.935 16.4657 30.9275 16.4525 30.9237 16.4463Z" fill="#E8B835"/>
<path d="M30.9962 16.5726C31.0031 16.5839 31.0162 16.607 31.0231 16.6183C31.0162 16.607 31.0031 16.5839 30.9962 16.5726Z" fill="#E8B835"/>
<path d="M31.0229 16.6182C31.0286 16.6282 31.0404 16.6482 31.0461 16.6582C31.0404 16.6482 31.0286 16.6282 31.0229 16.6182Z" fill="#E8B835"/>
<path d="M27.1987 16.7346C28.7668 17.1677 30.3055 17.7009 31.8693 18.1502L31.883 18.2015C30.1274 18.2415 28.3693 18.2084 26.613 18.2178C26.7562 17.9859 27.1037 17.9402 27.1618 17.6496C27.2374 17.3509 27.1774 17.039 27.1987 16.7346Z" fill="#E8B835"/>
<path d="M31.178 16.8933C31.1842 16.9064 31.1967 16.9327 31.2024 16.9458C31.1967 16.9327 31.1842 16.9064 31.178 16.8933Z" fill="#E8B835"/>
<path d="M31.2312 17.0107C31.2387 17.0232 31.2537 17.0489 31.2606 17.0614C31.2537 17.0489 31.2387 17.0232 31.2312 17.0107Z" fill="#E8B835"/>
<path d="M31.2606 17.0614C31.27 17.0739 31.2881 17.0977 31.2975 17.1095C31.2881 17.0977 31.27 17.0739 31.2606 17.0614Z" fill="#E8B835"/>
<path d="M31.3406 17.1708C31.3481 17.1827 31.3631 17.2064 31.3712 17.2189C31.3631 17.2064 31.3481 17.1827 31.3406 17.1708Z" fill="#E8B835"/>
<path d="M31.4343 17.3284C31.44 17.3384 31.4512 17.3584 31.4568 17.3684C31.4512 17.3584 31.44 17.3384 31.4343 17.3284Z" fill="#E8B835"/>
<path d="M31.4568 17.3682C31.4624 17.3782 31.4737 17.3975 31.4799 17.4075C31.4737 17.3975 31.4624 17.3782 31.4568 17.3682Z" fill="#E8B835"/>
<path d="M31.5424 17.5151C31.5449 17.5201 31.5499 17.5289 31.5524 17.5333C31.5499 17.5289 31.5449 17.5201 31.5424 17.5151Z" fill="#E8B835"/>
<path d="M31.6118 17.637C31.6143 17.6413 31.6193 17.6495 31.6218 17.6538C31.6193 17.6495 31.6143 17.6413 31.6118 17.637Z" fill="#E8B835"/>
<path d="M31.6825 17.7595C31.6887 17.7701 31.7012 17.7914 31.7075 17.8026C31.7012 17.7914 31.6887 17.7701 31.6825 17.7595Z" fill="#E8B835"/>
<path d="M31.7074 17.8026C31.7136 17.8132 31.7261 17.8345 31.7318 17.8451C31.7261 17.8345 31.7136 17.8132 31.7074 17.8026Z" fill="#E8B835"/>
<path d="M31.7943 17.9526C31.7968 17.957 31.8012 17.9658 31.8037 17.9701C31.8012 17.9658 31.7968 17.957 31.7943 17.9526Z" fill="#E8B835"/>
<path d="M31.8699 18.094C31.878 18.1084 31.8936 18.1371 31.9018 18.1515L31.8693 18.1502L31.8699 18.094Z" fill="#E8B835"/>
<path d="M9.20066 21.5046C9.84503 20.4058 10.4575 19.2864 11.1232 18.2008C14.35 18.2127 17.5775 18.1827 20.8038 18.2127L20.845 18.2158C19.2132 18.2683 17.5769 18.2021 15.945 18.2433C15.6338 18.4439 15.4263 18.7689 15.1282 18.9877C14.8513 19.1896 14.6475 19.4708 14.3832 19.6864C14.0125 19.9596 13.7369 20.3383 13.3607 20.6058C12.9257 21.0664 12.4238 21.4546 11.985 21.9127C11.6563 22.1652 11.3813 22.4771 11.075 22.7552C10.7382 22.9996 10.48 23.3308 10.165 23.6008C10.1569 23.6077 10.1413 23.6214 10.1332 23.6289C10.1163 23.6421 10.0832 23.6696 10.0663 23.6827C10.0582 23.6896 10.0432 23.7021 10.035 23.7089C9.78691 23.9008 9.59691 24.1539 9.35316 24.3508C9.34503 24.3577 9.32941 24.3708 9.32191 24.3771C9.31378 24.3839 9.29816 24.3971 9.29003 24.4033C8.93441 24.6952 8.64941 25.0646 8.27628 25.3364C7.90066 25.7089 7.47691 26.0289 7.12003 26.4214C6.59253 26.8552 6.13628 27.3671 5.59253 27.7827C5.72753 27.4883 5.90628 27.2183 6.06315 26.9364C7.10941 25.1258 8.15441 23.3152 9.20066 21.5046Z" fill="#296AD9"/>
<path d="M5.56494 27.8227C5.57182 27.8127 5.58557 27.7927 5.59244 27.7827L5.59057 27.8233L5.56494 27.8227Z" fill="#296AD9"/>
<path d="M20.8447 18.2157C22.7672 18.2239 24.6897 18.2182 26.6128 18.2176C28.3691 18.2082 30.1272 18.2414 31.8828 18.2014L31.9197 18.1989L31.9447 18.2057V18.2107C30.091 21.4151 28.2428 24.6232 26.3891 27.8282C19.456 27.8263 12.5228 27.8345 5.59033 27.8232L5.59221 27.7826C6.13596 27.367 6.59221 26.8551 7.11971 26.4213C7.47658 26.0288 7.90033 25.7088 8.27596 25.3363C8.64908 25.0645 8.93408 24.6951 9.28971 24.4032C9.29783 24.397 9.31346 24.3838 9.32158 24.377C9.32908 24.3707 9.34471 24.3576 9.35283 24.3507C9.59658 24.1538 9.78658 23.9007 10.0347 23.7088C10.0428 23.702 10.0578 23.6895 10.066 23.6826C10.0828 23.6695 10.116 23.642 10.1328 23.6288C10.141 23.6213 10.1566 23.6076 10.1647 23.6007C10.4797 23.3307 10.7378 22.9995 11.0747 22.7551C11.381 22.477 11.656 22.1651 11.9847 21.9126C12.4235 21.4545 12.9253 21.0663 13.3603 20.6057C13.7366 20.3382 14.0122 19.9595 14.3828 19.6864C14.6472 19.4707 14.851 19.1895 15.1278 18.9876C15.426 18.7689 15.6335 18.4439 15.9447 18.2432C17.5766 18.202 19.2128 18.2682 20.8447 18.2157Z" fill="#2A71E9"/>
<path d="M10.1329 23.6288C10.1411 23.6213 10.1567 23.6076 10.1648 23.6007C10.1567 23.6076 10.1411 23.6213 10.1329 23.6288Z" fill="#286EE6"/>
<path d="M10.0662 23.6825C10.083 23.6694 10.1162 23.6419 10.133 23.6288C10.1162 23.6419 10.083 23.6694 10.0662 23.6825Z" fill="#286EE6"/>
<path d="M10.0349 23.7089C10.043 23.702 10.058 23.6895 10.0662 23.6826C10.058 23.6895 10.043 23.702 10.0349 23.7089Z" fill="#286EE6"/>
<path d="M9.32166 24.377C9.32916 24.3707 9.34478 24.3576 9.35291 24.3507C9.34478 24.3576 9.32916 24.3707 9.32166 24.377Z" fill="#286EE6"/>
<path d="M9.28979 24.4032C9.29792 24.397 9.31355 24.3838 9.32167 24.377C9.31355 24.3838 9.29792 24.397 9.28979 24.4032Z" fill="#286EE6"/>
</svg>
