<svg width="62" height="50" viewBox="0 0 62 50" fill="none" xmlns="http://www.w3.org/2000/svg">
<path d="M41.1963 13.7485L46.5809 8.36392L46.9398 6.09664C37.1275 -2.82563 21.5297 -1.81394 12.6844 8.20761C10.2274 10.991 8.40462 14.4612 7.43262 18.0445L9.36114 17.7728L20.1301 15.997L20.9616 15.1467C25.7519 9.88569 33.8515 9.17792 39.3825 13.6542L41.1963 13.7485Z" fill="#EA4335"/>
<path d="M54.2515 17.8862C53.0138 13.3284 50.4728 9.23108 46.9398 6.0968L39.3825 13.6541C42.5736 16.2616 44.3916 20.1898 44.3136 24.3099V25.6514C48.0282 25.6514 51.0398 28.6627 51.0398 32.3772C51.0398 36.092 48.0282 39.0279 44.3136 39.0279H30.8428L29.5201 40.4637V48.5311L30.8428 49.7969H44.3136C53.9756 49.8721 61.8693 42.1762 61.9445 32.5142C61.99 26.6577 59.1025 21.1674 54.2515 17.8862Z" fill="#4285F4"/>
<path d="M17.3907 49.7969H30.8427V39.0277H17.3907C16.4323 39.0274 15.5041 38.8215 14.6325 38.4232L12.724 39.0088L7.30168 44.3934L6.82935 46.2261C9.87022 48.5222 13.5804 49.8134 17.3907 49.7969Z" fill="#34A853"/>
<path d="M17.3907 14.8633C7.72845 14.9209 -0.0572721 22.8005 0.000317435 32.4624C0.0324998 37.858 2.55241 42.937 6.82928 46.2261L14.6324 38.4232C11.247 36.8937 9.74263 32.9096 11.2721 29.5244C12.8014 26.1392 16.7857 24.6349 20.1707 26.1641C21.6625 26.838 22.8571 28.0329 23.531 29.5244L31.3341 21.7215C28.014 17.3812 22.8551 14.8437 17.3907 14.8633Z" fill="#FBBC05"/>
</svg>
