<svg width="41" height="57" viewBox="0 0 41 57" fill="none" xmlns="http://www.w3.org/2000/svg">
<path d="M40.9999 52.9782C40.9999 54.7741 39.5408 56.2333 37.7449 56.2333H3.84779C2.05192 56.2333 0.592773 54.7741 0.592773 52.9782V3.25502C0.592773 1.45915 2.05192 0 3.84779 0H25.6452L40.9999 15.7363V52.9782Z" fill="#23A566"/>
<path d="M27.329 15.3323L41.0001 28.3748L40.9552 15.7139H40.9327H28.8779C28.3167 15.7139 27.8004 15.5792 27.329 15.3323Z" fill="#1C8F5A"/>
<path d="M41 15.7139H28.8778C27.0819 15.7139 25.6228 14.2547 25.6228 12.4589V0L41 15.7139Z" fill="#8ED1B1"/>
<path fill-rule="evenodd" clip-rule="evenodd" d="M31.3024 45.8396H10.2906V27.6339H31.3024V45.8396ZM22.0985 30.2379V33.4929H28.6983V30.2379H22.0985ZM22.0985 35.446V38.4765H28.6983V35.446H22.0985ZM22.0985 40.4295V43.2356H28.6983V40.4295H22.0985ZM19.4945 43.2356V40.4295H12.8947V43.2356H19.4945ZM19.4945 38.4765V35.446H12.8947V38.4765H19.4945ZM19.4945 33.4929V30.2379H12.8947V33.4929H19.4945Z" fill="white"/>
</svg>
