<?xml version="1.0" encoding="UTF-8" standalone="no"?>
<svg
   xmlns:dc="http://purl.org/dc/elements/1.1/"
   xmlns:cc="http://creativecommons.org/ns#"
   xmlns:rdf="http://www.w3.org/1999/02/22-rdf-syntax-ns#"
   xmlns:svg="http://www.w3.org/2000/svg"
   xmlns="http://www.w3.org/2000/svg"
   xmlns:sodipodi="http://sodipodi.sourceforge.net/DTD/sodipodi-0.dtd"
   xmlns:inkscape="http://www.inkscape.org/namespaces/inkscape"
   width="37"
   height="31"
   viewBox="0 0 37 31"
   fill="none"
   version="1.1"
   id="svg909"
   sodipodi:docname="logo-white.svg"
   inkscape:version="1.0.1 (0767f8302a, 2020-10-17)">
  <metadata
     id="metadata915">
    <rdf:RDF>
      <cc:Work
         rdf:about="">
        <dc:format>image/svg+xml</dc:format>
        <dc:type
           rdf:resource="http://purl.org/dc/dcmitype/StillImage" />
      </cc:Work>
    </rdf:RDF>
  </metadata>
  <defs
     id="defs913" />
  <sodipodi:namedview
     pagecolor="#ffffff"
     bordercolor="#666666"
     borderopacity="1"
     objecttolerance="10"
     gridtolerance="10"
     guidetolerance="10"
     inkscape:pageopacity="0"
     inkscape:pageshadow="2"
     inkscape:window-width="1920"
     inkscape:window-height="948"
     id="namedview911"
     showgrid="false"
     inkscape:zoom="23.648649"
     inkscape:cx="18.5"
     inkscape:cy="11.326837"
     inkscape:window-x="0"
     inkscape:window-y="27"
     inkscape:window-maximized="1"
     inkscape:current-layer="svg909" />
  <path
     d="m 8.4233209,12.7978 c 1.5663,-5.7102872 7.5747601,-9.0990016 13.4202601,-7.5689501 2.0186,0.5283825 3.7539,1.5742521 5.0962,2.9523451 l 4.3009,-2.4256588 c -2.0253,-2.4134661 -4.8154,-4.252603 -8.1366,-5.1219343 -8.4436,-2.2100782 -17.1224301,2.6847315 -19.3848581,10.9328661 -2.262432,8.248163 2.748318,16.72621 11.1918581,18.936244 8.0478,2.106565 16.3094,-2.241563 19.0251,-9.795686 l -4.7241,-1.236521 c -2.003,5.016426 -7.5926,7.863029 -13.0406,6.437033 C 10.326001,24.377477 6.8570209,18.507968 8.4233209,12.7978 Z"
     fill="#ffffff"
     id="path905"
     style="stroke-width:0.998878" />
  <path
     d="M30.9736 10.8339L37 21.0533L32.4861 19.8691C31.8623 19.7055 31.3305 19.3059 31.0076 18.7583L29.5031 16.2071L26.8973 17.68C26.338 17.9962 25.6733 18.0819 25.0495 17.9182L20.5357 16.7341L30.9736 10.8339Z"
     fill="white"
     id="path907" />
</svg>
