<svg width="103" height="44" viewBox="0 0 103 44" fill="none" xmlns="http://www.w3.org/2000/svg">
<path fill-rule="evenodd" clip-rule="evenodd" d="M32.2867 3.86334C32.5543 4.06553 32.88 4.17607 33.2154 4.17857C33.4354 4.1805 33.6533 4.13584 33.8549 4.04755L34.6036 4.74948C34.1935 5.02643 33.7103 5.1752 33.2154 5.17687C32.5407 5.17028 31.8963 4.89617 31.4237 4.41476C30.951 3.93334 30.6888 3.28399 30.6947 2.60937C30.6827 2.27109 30.7391 1.93388 30.8603 1.61785C30.9816 1.30182 31.1652 1.01345 31.4003 0.769926C31.6354 0.526406 31.9172 0.332731 32.2287 0.200452C32.5403 0.0681727 32.8753 0 33.2138 0C33.5523 0 33.8873 0.0681727 34.1989 0.200452C34.5104 0.332731 34.7922 0.526406 35.0273 0.769926C35.2624 1.01345 35.446 1.30182 35.5673 1.61785C35.6885 1.93388 35.7449 2.27109 35.7329 2.60937C35.7319 3.07221 35.6081 3.52648 35.3742 3.92588L34.6567 3.24267C34.7908 2.93527 34.8223 2.59282 34.7465 2.26611C34.6706 1.93939 34.4915 1.64583 34.2357 1.42894C33.9798 1.21206 33.6609 1.08341 33.3262 1.06209C32.9915 1.04076 32.6588 1.12789 32.3775 1.31054C32.0962 1.4932 31.8813 1.76166 31.7646 2.07611C31.6479 2.39055 31.6357 2.73423 31.7298 3.05617C31.8238 3.37811 32.0191 3.66116 32.2867 3.86334ZM36.3508 4.84923C37.0852 4.22577 38.0174 3.88405 38.9807 3.88525L38.9589 3.89149C40.0709 3.89149 41.1374 4.33323 41.9237 5.11955C42.71 5.90586 43.1517 6.97233 43.1517 8.08434C43.1517 9.19636 42.71 10.2628 41.9237 11.0491C41.1374 11.8355 40.0709 12.2772 38.9589 12.2772C38.0527 12.273 37.1741 11.9655 36.4631 11.4037L37.6081 10.265C38.0018 10.5116 38.4549 10.647 38.9193 10.6569C39.3837 10.6668 39.8422 10.5508 40.246 10.3212C40.6499 10.0917 40.9841 9.75708 41.2131 9.35296C41.4422 8.94884 41.5577 8.49026 41.5472 8.02584C41.5368 7.56142 41.4008 7.10849 41.1538 6.71508C40.9068 6.32167 40.5579 6.00245 40.1441 5.79128C39.7303 5.58011 39.2671 5.48486 38.8036 5.51563C38.3401 5.54641 37.8936 5.70206 37.5113 5.96608L36.3508 4.84923ZM30.2642 21.0435C29.6 21.0439 28.9451 20.8865 28.3534 20.5846C27.7617 20.2826 27.2501 19.8445 26.8607 19.3064C26.4712 18.7682 26.2149 18.1454 26.113 17.489C26.011 16.8326 26.0662 16.1613 26.2741 15.5304C26.482 14.8995 26.8366 14.3269 27.3088 13.8596C27.781 13.3924 28.3573 13.0438 28.9904 12.8426C29.6235 12.6414 30.2953 12.5933 30.9506 12.7021C31.6059 12.811 32.226 13.0738 32.76 13.4689L34.6069 11.6221C33.3989 10.5838 31.8571 10.0156 30.2642 10.0217C28.4506 10.0217 26.7112 10.7422 25.4288 12.0246C24.1464 13.307 23.4259 15.0464 23.4259 16.86C23.4259 18.6737 24.1464 20.4131 25.4288 21.6955C26.7112 22.9779 28.4506 23.6984 30.2642 23.6984C31.4159 23.6953 32.5465 23.3897 33.543 22.8124L31.9832 20.6723C31.4429 20.9161 30.857 21.0426 30.2642 21.0435ZM4.09319 35.3442V12.9012H0.698975V35.4659C0.698975 40.785 4.05264 43.6675 8.94431 43.0904V39.8459C6.35809 39.9707 4.09319 39.0348 4.09319 35.3442ZM26.1243 33.485C26.0993 33.7377 26.065 33.9904 26.0182 34.2368C26.065 33.9904 26.0993 33.7315 26.1243 33.485ZM12.2794 34.2368C12.2326 33.9904 12.1983 33.7377 12.1733 33.485C12.1932 33.6812 12.2249 33.8853 12.2559 34.0847L12.256 34.085L12.256 34.0853L12.2561 34.0856L12.2652 34.1444L12.2794 34.2368ZM12.5526 35.3094C12.4847 35.0809 12.4168 34.8462 12.3519 34.6054L12.3511 34.6017C12.3199 34.4801 12.2949 34.3584 12.27 34.2368L12.2699 34.2367C12.2232 33.9903 12.1888 33.7376 12.1639 33.4849C12.1389 33.2322 12.1264 32.9701 12.1264 32.7112C12.1264 28.4435 15.2867 24.9525 19.1239 24.9525C22.9611 24.9525 26.1525 28.4435 26.1525 32.7112C26.1619 32.9701 26.1494 33.229 26.1245 33.4849C26.0995 33.7376 26.0652 33.9903 26.0184 34.2367C25.9934 34.3584 25.9685 34.48 25.9404 34.6017C25.8822 34.845 25.8135 35.0821 25.7345 35.313C25.6178 35.6583 25.4771 35.995 25.3134 36.3207C25.2042 36.5359 25.0856 36.7449 24.9608 36.9446C24.836 37.1443 24.6988 37.3408 24.5553 37.528C24.4629 37.6485 24.3601 37.7664 24.2603 37.881L24.26 37.8813C24.205 37.9445 24.1508 38.0067 24.0998 38.0677C23.942 38.2395 23.7754 38.403 23.6006 38.5575C23.4293 38.7133 23.2491 38.8592 23.0609 38.9942C21.93 39.8366 20.5575 40.2917 19.1473 40.2917C17.7371 40.2917 16.3646 39.8366 15.2336 38.9942C15.0461 38.8584 14.8659 38.7126 14.6939 38.5575C14.5224 38.4046 14.3539 38.2455 14.1948 38.0677C14.0357 37.8899 13.8828 37.7152 13.7424 37.528C13.5984 37.3405 13.4641 37.1458 13.34 36.9446C13.2121 36.7418 13.0967 36.5328 12.9875 36.3207C12.8195 35.9954 12.6746 35.6586 12.5538 35.313L12.5526 35.3094ZM19.1333 21.6675C13.2339 21.6675 8.66359 26.6184 8.66359 32.7112C8.66359 38.7166 13.2339 43.6301 19.1333 43.6301C25.0326 43.6301 29.5998 38.7228 29.5998 32.7112C29.5998 26.6184 25.0731 21.6675 19.1333 21.6675ZM66.0565 22.1979H71.1072L63.0616 30.0283L71.831 43.0966H67.6693L60.5564 32.4616L56.557 36.3612V43.0966H53.1191V12.9012H56.557V31.5725L66.0565 22.1979ZM80.1167 40.4605C76.685 40.4605 73.3688 37.8992 72.9414 33.5629H90.4397C90.4803 26.1318 85.3047 21.6675 79.9295 21.6675C74.1518 21.6675 69.4661 26.6184 69.4661 32.6675C69.4661 38.7946 74.1456 43.5864 80.1323 43.5864C84.946 43.5864 88.4993 41.0719 89.9531 36.6077H86.2968C85.1675 39.0348 83.0586 40.4605 80.1167 40.4605ZM79.9139 24.7934C82.9462 24.7934 85.7758 27.0645 86.6275 30.4775H73.1255C74.0115 26.9054 77.0438 24.7934 79.9139 24.7934ZM95.5157 22.1885V24.5501C97.0974 22.3195 99.9207 21.4242 102.301 21.7112V25.1179C98.704 24.9151 95.6311 26.8213 95.6311 31.0016V43.0904H92.1995V22.1885H95.5157ZM35.3897 12.4333C36.4192 13.6737 36.9811 15.2358 36.9776 16.8477C36.9808 17.7776 36.7949 18.6985 36.4313 19.5544C36.0677 20.4103 35.534 21.1834 34.8625 21.8267L33.3214 19.7209C34.0108 18.9905 34.4147 18.0367 34.4593 17.0333C34.504 16.0299 34.1865 15.044 33.5647 14.2552L35.3897 12.4333ZM49.0542 25.5235C45.7598 21.5084 40.2099 20.4571 35.7457 23.1213L37.6362 25.8729C38.9965 25.0662 40.6002 24.7719 42.1582 25.0431C43.7163 25.3142 45.1263 26.1329 46.1342 27.3516C47.4212 28.873 48.1245 30.8028 48.1183 32.7955C48.1148 33.8786 47.8839 34.949 47.4406 35.9373C46.9972 36.9255 46.3513 37.8097 45.5446 38.5326C44.8827 39.1438 44.1045 39.6155 43.2564 39.9197C42.4083 40.2239 41.5077 40.3542 40.6082 40.303C39.7087 40.2517 38.8287 40.02 38.0206 39.6215C37.2126 39.223 36.493 38.6659 35.9048 37.9835C34.5418 36.4207 33.8292 34.3952 33.9134 32.3232C33.9975 30.2513 34.872 28.2903 36.3571 26.8431L34.4291 24.0354C33.2124 24.9903 32.2221 26.2027 31.5296 27.5857C30.837 28.9687 30.4592 30.4879 30.4235 32.0342C30.4235 35.4877 31.3594 37.9897 33.1626 40.0893C36.9748 44.5068 43.9723 44.8218 48.1745 40.7631C50.1784 38.7807 51.3773 36.1263 51.5397 33.3122C51.7022 30.498 50.8167 27.7234 49.0542 25.5235ZM36.4038 8.0781C36.4045 7.61774 36.5295 7.16611 36.7657 6.77095L35.6052 5.68218C35.1086 6.40645 34.8494 7.26711 34.8634 8.14512C34.8774 9.02313 35.1638 9.87511 35.6832 10.5832L36.8094 9.46012C36.5445 9.04787 36.4037 8.56813 36.4038 8.0781Z" fill="#5338BB"/>
</svg>
