<?xml version="1.0" encoding="UTF-8" standalone="no"?>
<svg
   xmlns:dc="http://purl.org/dc/elements/1.1/"
   xmlns:cc="http://creativecommons.org/ns#"
   xmlns:rdf="http://www.w3.org/1999/02/22-rdf-syntax-ns#"
   xmlns:svg="http://www.w3.org/2000/svg"
   xmlns="http://www.w3.org/2000/svg"
   xmlns:sodipodi="http://sodipodi.sourceforge.net/DTD/sodipodi-0.dtd"
   xmlns:inkscape="http://www.inkscape.org/namespaces/inkscape"
   enable-background="new 0 0 24 24"
   viewBox="0 0 24 24"
   fill="black"
   width="48px"
   height="48px"
   version="1.1"
   id="svg8"
   sodipodi:docname="menu_open.svg"
   inkscape:version="1.0.1 (0767f8302a, 2020-10-17)">
  <metadata
     id="metadata14">
    <rdf:RDF>
      <cc:Work
         rdf:about="">
        <dc:format>image/svg+xml</dc:format>
        <dc:type
           rdf:resource="http://purl.org/dc/dcmitype/StillImage" />
        <dc:title></dc:title>
      </cc:Work>
    </rdf:RDF>
  </metadata>
  <defs
     id="defs12" />
  <sodipodi:namedview
     pagecolor="#ffffff"
     bordercolor="#666666"
     borderopacity="1"
     objecttolerance="10"
     gridtolerance="10"
     guidetolerance="10"
     inkscape:pageopacity="0"
     inkscape:pageshadow="2"
     inkscape:window-width="1920"
     inkscape:window-height="1043"
     id="namedview10"
     showgrid="false"
     inkscape:zoom="16.708333"
     inkscape:cx="24"
     inkscape:cy="24"
     inkscape:window-x="1920"
     inkscape:window-y="0"
     inkscape:window-maximized="1"
     inkscape:current-layer="svg8" />
  <path
     d="M0,0h24v24H0V0z"
     fill="none"
     id="path2" />
  <path
     d="M4,18h11c0.55,0,1-0.45,1-1v0c0-0.55-0.45-1-1-1H4c-0.55,0-1,0.45-1,1v0C3,17.55,3.45,18,4,18z M4,13h8c0.55,0,1-0.45,1-1v0 c0-0.55-0.45-1-1-1H4c-0.55,0-1,0.45-1,1v0C3,12.55,3.45,13,4,13z M3,7L3,7c0,0.55,0.45,1,1,1h11c0.55,0,1-0.45,1-1v0 c0-0.55-0.45-1-1-1H4C3.45,6,3,6.45,3,7z M20.3,14.88L17.42,12l2.88-2.88c0.39-0.39,0.39-1.02,0-1.41l0,0 c-0.39-0.39-1.02-0.39-1.41,0l-3.59,3.59c-0.39,0.39-0.39,1.02,0,1.41l3.59,3.59c0.39,0.39,1.02,0.39,1.41,0l0,0 C20.68,15.91,20.69,15.27,20.3,14.88z"
     id="path4"
     style="fill:#20dfac;fill-opacity:1" />
  <path
     d="M0,0h24v24H0V0z"
     fill="none"
     id="path6" />
</svg>
