<?xml version="1.0" encoding="UTF-8" standalone="no"?>
<svg
   xmlns:dc="http://purl.org/dc/elements/1.1/"
   xmlns:cc="http://creativecommons.org/ns#"
   xmlns:rdf="http://www.w3.org/1999/02/22-rdf-syntax-ns#"
   xmlns:svg="http://www.w3.org/2000/svg"
   xmlns="http://www.w3.org/2000/svg"
   xmlns:sodipodi="http://sodipodi.sourceforge.net/DTD/sodipodi-0.dtd"
   xmlns:inkscape="http://www.inkscape.org/namespaces/inkscape"
   viewBox="0 0 35 24"
   fill="#000000"
   width="35"
   height="24"
   version="1.1"
   id="svg6"
   sodipodi:docname="play-icon-black.svg"
   inkscape:version="1.0.1 (0767f8302a, 2020-10-17)">
  <metadata
     id="metadata12">
    <rdf:RDF>
      <cc:Work
         rdf:about="">
        <dc:format>image/svg+xml</dc:format>
        <dc:type
           rdf:resource="http://purl.org/dc/dcmitype/StillImage" />
        <dc:title></dc:title>
      </cc:Work>
    </rdf:RDF>
  </metadata>
  <defs
     id="defs10" />
  <sodipodi:namedview
     pagecolor="#ffffff"
     bordercolor="#666666"
     borderopacity="1"
     objecttolerance="10"
     gridtolerance="10"
     guidetolerance="10"
     inkscape:pageopacity="0"
     inkscape:pageshadow="2"
     inkscape:window-width="1920"
     inkscape:window-height="1043"
     id="namedview8"
     showgrid="false"
     showguides="true"
     inkscape:guide-bbox="true"
     inkscape:zoom="23.629152"
     inkscape:cx="12.482692"
     inkscape:cy="11.614043"
     inkscape:window-x="1920"
     inkscape:window-y="0"
     inkscape:window-maximized="1"
     inkscape:current-layer="svg6" />
  <path
     d="M 0,0 H 24 V 24 H 0 Z"
     fill="none"
     id="path2" />
  <path
     d="m 18.543379,4.2778764 c 0,-1.2331733 1.339691,-1.9849778 2.372508,-1.3313966 l 11.030143,6.980058 c 0.971721,0.6149112 0.971721,2.0478952 0,2.6628062 L 20.915887,19.5694 c -1.032817,0.653613 -2.372508,-0.09821 -2.372508,-1.331403 z"
     fill="#20dfac"
     id="path98"
     style="stroke-width:0.780163"
     inkscape:transform-center-x="0.14693392"
     inkscape:transform-center-y="1.228602" />
  <path
     style="fill:#001f35;stroke-width:0.0423206;fill-opacity:1;stroke:#001f35;stroke-opacity:1"
     d="m 19.792413,19.760407 c -0.445322,-0.09336 -0.872789,-0.443497 -1.084591,-0.88838 L 18.576859,18.596943 V 11.253428 3.9099128 l 0.138562,-0.2814603 c 0.175232,-0.3559457 0.508221,-0.6698318 0.845533,-0.7970247 0.308331,-0.1162649 0.756054,-0.1236675 1.026133,-0.016966 0.295404,0.1167065 11.42274,7.1676937 11.620228,7.3633142 0.09546,0.09455 0.228319,0.284997 0.295251,0.423206 0.107335,0.221641 0.121873,0.298727 0.123214,0.653336 0.0013,0.349818 -0.01326,0.433578 -0.112245,0.644788 -0.06257,0.133507 -0.206453,0.333472 -0.319738,0.444366 -0.240166,0.235095 -11.309565,7.248968 -11.604856,7.353153 -0.240297,0.08478 -0.570316,0.111208 -0.796528,0.06378 z"
     id="path78" />
</svg>
