<svg width="35" height="32" viewBox="0 0 35 32" fill="none" xmlns="http://www.w3.org/2000/svg">
<path d="M21.5029 17.6001L19.1308 0.00012207H18.9537C10.3282 0.0256002 3.34208 7.0939 3.31689 15.8209V16.0001L21.5029 17.6001Z" fill="#ED6C47"/>
<path d="M19.308 0.00012207H19.1309V16.0001L27.0378 19.2001L34.9448 16.0001V15.8209C34.9196 7.09391 27.9335 0.0256002 19.308 0.00012207Z" fill="#FF8F6B"/>
<path d="M34.9448 16.0001V16.1761C34.92 24.9051 27.9323 31.9751 19.3048 32.0001H18.9569C10.3294 31.9751 3.34165 24.9051 3.31689 16.1761V16.0001H34.9448Z" fill="#D35230"/>
<path opacity="0.1" d="M19.9216 7.86403V24.936C19.9176 25.5293 19.5623 26.0622 19.0202 26.288C18.8475 26.3619 18.662 26.4 18.4746 26.4H7.04901C6.82761 26.144 6.61413 25.872 6.41645 25.6C4.40198 22.8811 3.31429 19.5741 3.31691 16.176V15.824C3.31229 12.7591 4.19762 9.76028 5.86296 7.20002C6.03691 6.92802 6.21876 6.65602 6.41645 6.40002H18.4746C19.2712 6.40613 19.9155 7.05803 19.9216 7.86403Z" fill="black"/>
<path opacity="0.2" d="M19.1309 8.6642V25.7362C19.1308 25.9258 19.0932 26.1136 19.0202 26.2882C18.797 26.8367 18.2702 27.1962 17.6839 27.2002H7.76855C7.51838 26.9432 7.27833 26.6764 7.04901 26.4002C6.82761 26.1442 6.61413 25.8722 6.41645 25.6002C4.40198 22.8813 3.31429 19.5742 3.31691 16.1762V15.8242C3.31229 12.7593 4.19762 9.76045 5.86296 7.2002H17.6839C18.4805 7.20629 19.1249 7.85818 19.1309 8.6642Z" fill="black"/>
<path opacity="0.2" d="M19.1309 8.66406V24.1361C19.1248 24.9421 18.4805 25.594 17.6839 25.6001H6.41645C4.40198 22.8812 3.31429 19.5741 3.31691 16.1761V15.8241C3.31229 12.7591 4.19762 9.76032 5.86296 7.20007H17.6839C18.4805 7.20615 19.1248 7.85804 19.1309 8.66406Z" fill="black"/>
<path opacity="0.2" d="M18.3402 8.66406V24.1361C18.3341 24.9421 17.6898 25.594 16.8932 25.6001H6.41645C4.40198 22.8812 3.31429 19.5741 3.31691 16.1761V15.8241C3.31229 12.7591 4.19762 9.76032 5.86296 7.20007H16.8932C17.6898 7.20615 18.3341 7.85804 18.3402 8.66406Z" fill="black"/>
<path d="M2.39417 7.2002H16.8908C17.6913 7.2002 18.3402 7.85673 18.3402 8.66659V23.3338C18.3402 24.1437 17.6913 24.8002 16.8908 24.8002H2.39417C1.59373 24.8002 0.944824 24.1437 0.944824 23.3338V8.66659C0.944824 7.85673 1.59373 7.2002 2.39417 7.2002Z" fill="url(#paint0_linear)"/>
<path d="M9.80043 11.1113C10.7441 11.0469 11.6797 11.3242 12.4398 11.8937C13.0738 12.4664 13.4125 13.302 13.3586 14.1601C13.3689 14.7567 13.2118 15.3439 12.9055 15.8537C12.5954 16.3548 12.1486 16.7543 11.619 17.0041C11.0136 17.289 10.3517 17.4297 9.68419 17.4153H7.85057V20.8633H5.97266V11.1113H9.80043ZM7.84899 15.9257H9.46519C9.97756 15.9638 10.4859 15.8104 10.894 15.4945C11.2315 15.167 11.4084 14.7051 11.3771 14.2329C11.3771 13.1583 10.7598 12.6209 9.52529 12.6209H7.84901V15.9257H7.84899Z" fill="white"/>
<defs>
<linearGradient id="paint0_linear" x1="3.96675" y1="6.05438" x2="15.5186" y2="25.829" gradientUnits="userSpaceOnUse">
<stop stop-color="#CA4C28"/>
<stop offset="0.5" stop-color="#C5401E"/>
<stop offset="1" stop-color="#B62F14"/>
</linearGradient>
</defs>
</svg>
