<svg width="54" height="45" viewBox="0 0 54 45" fill="none" xmlns="http://www.w3.org/2000/svg">
<path d="M53.164 22.5505C53.164 24.3507 51.7046 25.8101 49.9041 25.8101C48.1039 25.8101 46.6445 24.3507 46.6445 22.5505C46.6445 20.7501 48.1039 19.2906 49.9041 19.2906C51.7046 19.2906 53.164 20.7501 53.164 22.5505Z" fill="#669CFE"/>
<path d="M46.4422 29.1923C46.4422 30.9925 44.9828 32.4519 43.1823 32.4519C41.3819 32.4519 39.9225 30.9925 39.9225 29.1923C39.9225 27.3919 41.3819 25.9325 43.1823 25.9325C44.9828 25.9325 46.4422 27.3919 46.4422 29.1923Z" fill="#3FE7FE"/>
<path d="M46.2348 15.8588C46.2348 17.544 44.8687 18.9099 43.1837 18.9099C41.4985 18.9099 40.1323 17.544 40.1323 15.8588C40.1323 14.1735 41.4985 12.8074 43.1837 12.8074C44.8687 12.8074 46.2348 14.1735 46.2348 15.8588Z" fill="#669CFE"/>
<path d="M39.5277 22.4908C39.5277 24.1761 38.1615 25.5422 36.4766 25.5422C34.7913 25.5422 33.4252 24.1761 33.4252 22.4908C33.4252 20.8056 34.7913 19.4395 36.4766 19.4395C38.1615 19.4395 39.5277 20.8056 39.5277 22.4908Z" fill="#3FE7FE"/>
<path d="M39.2735 9.19121C39.2735 10.7216 38.0328 11.9626 36.5021 11.9626C34.9715 11.9626 33.7307 10.7216 33.7307 9.19121C33.7307 7.66054 34.9715 6.4198 36.5021 6.4198C38.0328 6.4198 39.2735 7.66054 39.2735 9.19121Z" fill="#669CFE"/>
<path d="M32.5751 15.8217C32.5751 17.3522 31.3341 18.5931 29.8034 18.5931C28.273 18.5931 27.032 17.3522 27.032 15.8217C27.032 14.291 28.273 13.05 29.8034 13.05C31.3341 13.05 32.5751 14.291 32.5751 15.8217Z" fill="#3FE7FE"/>
<path d="M32.3445 2.49144C32.3445 3.86731 31.2292 4.98262 29.8534 4.98262C28.4775 4.98262 27.3622 3.86731 27.3622 2.49144C27.3622 1.11531 28.4775 0 29.8534 0C31.2292 0 32.3445 1.11531 32.3445 2.49144Z" fill="#669CFE"/>
<path d="M25.6204 9.1539C25.6204 10.5298 24.5051 11.6453 23.1292 11.6453C21.7534 11.6453 20.6381 10.5298 20.6381 9.1539C20.6381 7.77803 21.7534 6.66272 23.1292 6.66272C24.5051 6.66272 25.6204 7.77803 25.6204 9.1539Z" fill="#3FE7FE"/>
<path d="M18.6628 29.2407C18.6672 29.5344 18.6132 29.826 18.5039 30.0985C18.3946 30.3711 18.2321 30.6192 18.026 30.8284C17.8199 31.0376 17.5743 31.2038 17.3033 31.3172C17.0324 31.4306 16.7417 31.4889 16.448 31.4889C16.1543 31.4889 15.8636 31.4304 15.5927 31.317C15.3218 31.2035 15.0762 31.0373 14.8701 30.8281C14.6641 30.6188 14.5017 30.3707 14.3924 30.0981C14.2832 29.8255 14.2292 29.5339 14.2337 29.2402C14.2426 28.6587 14.4799 28.104 14.8943 27.696C15.3087 27.2879 15.8669 27.0593 16.4485 27.0593C17.0301 27.0594 17.5883 27.2882 18.0026 27.6964C18.4169 28.1045 18.654 28.6592 18.6628 29.2407ZM25.3365 35.9144C25.3409 36.2081 25.2869 36.4997 25.1776 36.7723C25.0683 37.0448 24.9058 37.293 24.6997 37.5022C24.4936 37.7114 24.248 37.8775 23.9771 37.9909C23.7062 38.1043 23.4154 38.1626 23.1217 38.1626C22.828 38.1626 22.5373 38.1041 22.2664 37.9907C21.9955 37.8772 21.7499 37.7111 21.5439 37.5018C21.3378 37.2925 21.1754 37.0444 21.0662 36.7718C20.9569 36.4992 20.903 36.2076 20.9075 35.9139C20.9164 35.3324 21.1536 34.7778 21.568 34.3697C21.9824 33.9617 22.5407 33.733 23.1222 33.733C23.7038 33.7331 24.262 33.9619 24.6763 34.3701C25.0906 34.7782 25.3277 35.3329 25.3365 35.9144ZM31.9995 42.5774C31.9995 42.8683 31.9422 43.1562 31.8309 43.4249C31.7196 43.6936 31.5565 43.9377 31.3509 44.1434C31.1453 44.349 30.9011 44.5121 30.6324 44.6234C30.3638 44.7347 30.0758 44.792 29.785 44.792C29.4942 44.792 29.2062 44.7347 28.9375 44.6234C28.6688 44.5121 28.4247 44.349 28.2191 44.1434C28.0134 43.9377 27.8503 43.6936 27.739 43.4249C27.6277 43.1562 27.5705 42.8683 27.5705 42.5774C27.5705 42.2866 27.6277 41.9987 27.739 41.73C27.8503 41.4613 28.0134 41.2172 28.2191 41.0115C28.4247 40.8059 28.6688 40.6428 28.9375 40.5315C29.2062 40.4202 29.4942 40.3629 29.785 40.3629C30.0758 40.3629 30.3638 40.4202 30.6324 40.5315C30.9011 40.6428 31.1453 40.8059 31.3509 41.0115C31.5565 41.2172 31.7196 41.4613 31.8309 41.73C31.9422 41.9987 31.9995 42.2866 31.9995 42.5774ZM18.6947 42.5774C18.6979 42.8703 18.6429 43.1608 18.533 43.4323C18.4231 43.7037 18.2605 43.9507 18.0545 44.1589C17.8486 44.3671 17.6034 44.5323 17.3331 44.6451C17.0629 44.7579 16.7729 44.816 16.4801 44.816C16.1872 44.816 15.8973 44.7579 15.627 44.6451C15.3568 44.5323 15.1116 44.3671 14.9056 44.1589C14.6996 43.9507 14.537 43.7037 14.4271 43.4323C14.3172 43.1608 14.2623 42.8703 14.2654 42.5774C14.2717 41.9942 14.5078 41.437 14.9224 41.0268C15.3371 40.6165 15.8968 40.3864 16.4801 40.3864C17.0633 40.3864 17.6231 40.6165 18.0377 41.0268C18.4524 41.437 18.6885 41.9942 18.6947 42.5774ZM5.26195 42.5774C5.26742 42.8717 5.21419 43.1641 5.10536 43.4376C4.99654 43.711 4.8343 43.9601 4.62813 44.1701C4.42196 44.3801 4.176 44.547 3.90461 44.6609C3.63323 44.7748 3.34186 44.8334 3.04755 44.8334C2.75323 44.8334 2.46187 44.7748 2.19048 44.6609C1.91909 44.547 1.67313 44.3801 1.46696 44.1701C1.26079 43.9601 1.09855 43.711 0.989729 43.4376C0.880903 43.1641 0.827672 42.8717 0.833147 42.5774C0.84394 41.9973 1.08199 41.4445 1.49609 41.0381C1.9102 40.6316 2.46728 40.4039 3.04755 40.4039C3.62781 40.4039 4.1849 40.6316 4.599 41.0381C5.01311 41.4445 5.25115 41.9973 5.26195 42.5774ZM11.9357 35.9037C11.9411 36.198 11.8879 36.4904 11.7791 36.7639C11.6703 37.0373 11.508 37.2863 11.3019 37.4964C11.0957 37.7064 10.8497 37.8733 10.5783 37.9871C10.307 38.101 10.0156 38.1597 9.72127 38.1597C9.42696 38.1597 9.13559 38.101 8.8642 37.9871C8.59282 37.8733 8.34685 37.7064 8.14069 37.4964C7.93452 37.2863 7.77228 37.0373 7.66345 36.7639C7.55463 36.4904 7.5014 36.198 7.50687 35.9037C7.51767 35.3236 7.75571 34.7708 8.16982 34.3643C8.58392 33.9579 9.14101 33.7301 9.72127 33.7301C10.3015 33.7301 10.8586 33.9579 11.2727 34.3643C11.6868 34.7708 11.9249 35.3236 11.9357 35.9037Z" fill="#6A9EFE"/>
<path d="M18.6913 2.49748C18.6823 3.10527 18.4345 3.68512 18.0015 4.11174C17.5685 4.53836 16.985 4.7775 16.3772 4.7775C15.7693 4.7775 15.1858 4.53836 14.7528 4.11174C14.3198 3.68512 14.072 3.10527 14.063 2.49748C14.0584 2.19068 14.1149 1.88605 14.2292 1.60129C14.3434 1.31652 14.5132 1.05732 14.7285 0.838759C14.9438 0.620195 15.2005 0.446629 15.4835 0.32816C15.7666 0.209691 16.0703 0.148682 16.3772 0.148682C16.684 0.148682 16.9877 0.209691 17.2708 0.32816C17.5538 0.446629 17.8105 0.620195 18.0258 0.838759C18.2411 1.05732 18.4109 1.31652 18.5251 1.60129C18.6394 1.88605 18.6959 2.19068 18.6913 2.49748Z" fill="#3FE7FE"/>
<path fill-rule="evenodd" clip-rule="evenodd" d="M11.2765 10.9051C11.7105 10.4711 11.9544 9.88239 11.9544 9.26857C11.9544 8.65475 11.7105 8.06607 11.2765 7.63203C10.8424 7.198 10.2538 6.95416 9.63995 6.95416C9.02613 6.95416 8.43745 7.198 8.00341 7.63203C7.56938 8.06607 7.32554 8.65475 7.32554 9.26857C7.32554 9.88239 7.56938 10.4711 8.00341 10.9051C8.43745 11.3391 9.02613 11.583 9.63995 11.583C10.2538 11.583 10.8424 11.3391 11.2765 10.9051ZM4.75531 3.11786C4.84915 2.8913 4.89745 2.64848 4.89745 2.40325C4.89745 1.908 4.70071 1.43303 4.35051 1.08283C4.00031 0.732628 3.52534 0.535889 3.03008 0.535889C2.53483 0.535889 2.05986 0.732628 1.70966 1.08283C1.35946 1.43303 1.16272 1.908 1.16272 2.40325C1.16272 2.64848 1.21102 2.8913 1.30486 3.11786C1.39871 3.34442 1.53626 3.55028 1.70966 3.72368C1.88306 3.89708 2.08892 4.03463 2.31548 4.12847C2.54203 4.22232 2.78486 4.27062 3.03008 4.27062C3.27531 4.27062 3.51814 4.22232 3.74469 4.12847C3.97125 4.03463 4.17711 3.89708 4.35051 3.72368C4.52391 3.55028 4.66146 3.34442 4.75531 3.11786ZM18.9181 15.8932C18.9181 17.2691 17.8025 18.3844 16.4267 18.3844C15.0508 18.3844 13.9355 17.2691 13.9355 15.8932C13.9355 14.5173 15.0508 13.4018 16.4267 13.4018C17.8025 13.4018 18.9181 14.5173 18.9181 15.8932ZM23.0934 25.344C24.6241 25.344 25.8648 24.1033 25.8648 22.5726C25.8648 21.0422 24.6241 19.8012 23.0934 19.8012C21.5627 19.8012 20.322 21.0422 20.322 22.5726C20.322 24.1033 21.5627 25.344 23.0934 25.344ZM32.8426 29.2205C32.8426 30.9057 31.4767 32.2719 29.7915 32.2719C28.1062 32.2719 26.7401 30.9057 26.7401 29.2205C26.7401 27.5352 28.1062 26.1693 29.7915 26.1693C31.4767 26.1693 32.8426 27.5352 32.8426 29.2205ZM39.7099 35.9721C39.7099 37.7726 38.2505 39.232 36.4503 39.232C34.6499 39.232 33.1905 37.7726 33.1905 35.9721C33.1905 34.172 34.6499 32.7126 36.4503 32.7126C38.2505 32.7126 39.7099 34.172 39.7099 35.9721Z" fill="black"/>
</svg>
