<svg width="53" height="59" viewBox="0 0 53 59" fill="none" xmlns="http://www.w3.org/2000/svg">
<path d="M26.2812 44.3869L48.3576 49.6432V8.29285L26.2812 13.5491V44.3869Z" fill="#205B97"/>
<path d="M48.3577 8.29285L52.5627 10.3954V47.5407L48.3577 49.6432V8.29285ZM26.2814 44.3869L4.20508 49.6432V8.29285L26.2814 13.5491V44.3869Z" fill="#5193CE"/>
<path d="M4.20501 8.29285L0 10.3954V47.5407L4.20501 49.6432V8.29285Z" fill="#205B97"/>
<path d="M31.889 58.0532L40.2991 53.8482V4.20501L31.889 0L29.3179 27.5669L31.889 58.0532Z" fill="#5193CE"/>
<path d="M20.6735 58.0532L12.2634 53.8482V4.20501L20.6735 0L23.2446 27.5669L20.6735 58.0532Z" fill="#205B97"/>
<path d="M20.6735 0H32.0029V57.9361H20.6735V0Z" fill="#2E73B7"/>
</svg>
