<svg width="68" height="48" viewBox="0 0 68 48" fill="none" xmlns="http://www.w3.org/2000/svg">
<path fill-rule="evenodd" clip-rule="evenodd" d="M36.9205 1.48878C33.5438 1.48878 30.4906 2.90603 28.2975 5.19107C25.8846 2.03612 22.0787 0 17.7963 0C10.5022 0 4.58854 5.9049 4.58854 13.1892C4.58854 15.0539 4.977 16.8276 5.67538 18.4345C2.28314 20.4174 0 24.1235 0 28.3682C0 34.7023 5.08162 39.8362 11.3498 39.8361C12.1499 39.8361 12.9297 39.7528 13.6824 39.5929C15.4046 44.2648 19.8915 47.596 25.1561 47.596C30.2116 47.596 34.5492 44.5254 36.411 40.1461C37.8272 40.8368 39.4177 41.2252 41.0994 41.2252C45.1164 41.2252 48.6162 39.0117 50.4527 35.7357C51.4033 35.9276 52.3706 36.024 53.3403 36.0235C61.4363 36.0235 68 29.4026 68 21.2349C68 13.0682 61.4363 6.44734 53.3403 6.44734C51.2297 6.44734 49.2236 6.89781 47.4112 7.70755C45.3256 3.99178 41.4093 1.48878 36.9205 1.48878ZM40.526 16.7517C40.4001 16.713 40.2858 16.6868 40.1366 16.6588C39.9854 16.6317 39.8053 16.6181 39.6009 16.6181C38.8879 16.6181 38.3261 16.8195 37.9319 17.2167C37.5396 17.6119 37.2732 18.2134 37.1395 19.0049L37.091 19.2712H36.196C36.196 19.2712 36.0875 19.2673 36.0643 19.3856L35.9181 20.206C35.9074 20.2835 35.9413 20.3329 36.0459 20.3329H36.9167L36.0333 25.2653C35.9645 25.6625 35.885 25.9889 35.7969 26.2368C35.7107 26.481 35.6264 26.664 35.5218 26.7977C35.4211 26.9256 35.3261 27.0205 35.1614 27.0757C35.0258 27.1212 34.8689 27.1425 34.6975 27.1425C34.6025 27.1425 34.4757 27.127 34.3817 27.1076C34.2887 27.0892 34.2393 27.0689 34.1686 27.0388C34.1686 27.0388 34.0669 27.0001 34.0262 27.1018C33.9942 27.1861 33.7617 27.8244 33.7336 27.9029C33.7065 27.9813 33.7453 28.0424 33.7946 28.0608C33.9109 28.1015 33.997 28.1286 34.155 28.1664C34.3739 28.2177 34.5589 28.2206 34.7322 28.2206C35.0945 28.2206 35.4258 28.1693 35.7 28.0705C35.9751 27.9707 36.2152 27.7973 36.4284 27.5629C36.658 27.3091 36.8023 27.0437 36.9399 26.6805C37.0764 26.3221 37.1937 25.8765 37.2866 25.3573L38.1749 20.3329H39.4729C39.4729 20.3329 39.5823 20.3368 39.6047 20.2176L39.7519 19.3982C39.7616 19.3198 39.7286 19.2713 39.623 19.2713H38.3628C38.3638 19.2671 38.3659 19.2539 38.3692 19.233V19.233C38.3884 19.1126 38.448 18.7378 38.5711 18.3821C38.6331 18.2049 38.7493 18.0605 38.8472 17.9617C38.9441 17.8648 39.0554 17.796 39.1776 17.7563C39.3025 17.7156 39.4449 17.6963 39.6009 17.6963C39.719 17.6963 39.8362 17.7098 39.9243 17.7282C40.0464 17.7544 40.0938 17.7679 40.1259 17.7777C40.2547 17.8164 40.2721 17.7786 40.2973 17.7167L40.5986 16.8895C40.6296 16.8001 40.5531 16.7624 40.526 16.7517ZM22.9181 25.276C22.9181 25.3419 22.8707 25.3952 22.8048 25.3952H21.7596C21.6937 25.3952 21.6472 25.3419 21.6472 25.276V16.8641C21.6472 16.7983 21.6937 16.745 21.7596 16.745H22.8048C22.8707 16.745 22.9181 16.7983 22.9181 16.8641V25.276ZM9.8492 24.6821C9.81392 24.7744 9.84768 24.8062 9.86804 24.8254C9.87227 24.8294 9.87593 24.8329 9.87826 24.8362C9.97955 24.9099 10.0821 24.9672 10.1854 25.0249C10.2125 25.04 10.2396 25.0551 10.2667 25.0706C10.9603 25.4387 11.6152 25.5461 12.3 25.5461C13.6948 25.5461 14.5608 24.8042 14.5608 23.6098V23.5866C14.5608 22.4823 13.5835 22.0813 12.6661 21.7916L12.547 21.7529L12.5459 21.7525C11.8547 21.5279 11.2587 21.3342 11.2587 20.8792V20.855C11.2587 20.4656 11.6074 20.1788 12.1479 20.1788C12.7485 20.1788 13.4614 20.3784 13.9206 20.6322C13.9206 20.6322 14.0552 20.7194 14.1046 20.5886C14.1317 20.5188 14.3642 19.8931 14.3885 19.8253C14.4146 19.7516 14.3681 19.6974 14.3207 19.6683C13.7966 19.3496 13.072 19.1317 12.3223 19.1317L12.1828 19.1326C10.9062 19.1326 10.015 19.9037 10.015 21.0089V21.0322C10.015 22.1975 10.9982 22.5752 11.9194 22.8387L12.0676 22.8843L12.0697 22.8849C12.7401 23.0909 13.3172 23.2683 13.3172 23.7406V23.7638C13.3172 24.1959 12.9414 24.5174 12.335 24.5174C12.0996 24.5174 11.3489 24.5126 10.5381 24.0001C10.4818 23.9672 10.439 23.9395 10.3985 23.9132C10.3685 23.8938 10.3397 23.8752 10.3076 23.8558C10.2679 23.8306 10.1681 23.787 10.1245 23.9188L9.8492 24.6821ZM30.2695 24.6821C30.2342 24.7744 30.268 24.8062 30.2883 24.8254C30.2916 24.8285 30.2946 24.8313 30.2968 24.834C30.2975 24.8347 30.298 24.8355 30.2985 24.8362C30.3997 24.9098 30.5022 24.967 30.6053 25.0247C30.6325 25.0399 30.6597 25.0551 30.6869 25.0706C31.3805 25.4387 32.0354 25.5461 32.7202 25.5461C34.1151 25.5461 34.9811 24.8042 34.9811 23.6098V23.5866C34.9811 22.4823 34.0037 22.0813 33.0863 21.7916L32.9672 21.7529L32.966 21.7525C32.2749 21.5279 31.6788 21.3342 31.6788 20.8792V20.855C31.6788 20.4656 32.0275 20.1788 32.5681 20.1788C33.1686 20.1788 33.8816 20.3784 34.3408 20.6322C34.3408 20.6322 34.4754 20.7194 34.5248 20.5886C34.5518 20.5188 34.7844 19.8931 34.8086 19.8253C34.8348 19.7516 34.7882 19.6974 34.7408 19.6683C34.2167 19.3496 33.4922 19.1317 32.7425 19.1317L32.6029 19.1326C31.3262 19.1326 30.4351 19.9037 30.4351 21.0089V21.0322C30.4351 22.1975 31.4183 22.5752 32.3395 22.8387L32.4877 22.8843L32.4911 22.8853C33.1609 23.0912 33.7383 23.2686 33.7383 23.7406V23.7638C33.7383 24.1959 33.3615 24.5174 32.7551 24.5174C32.5197 24.5174 31.769 24.5126 30.9583 24.0001C30.8817 23.9554 30.8295 23.9214 30.7752 23.886L30.7752 23.886L30.7287 23.8558C30.7035 23.8393 30.5853 23.7938 30.5446 23.9188L30.2695 24.6821ZM44.2099 22.3426C44.2099 23.0178 44.084 23.5496 43.836 23.9254C43.5909 24.2974 43.2199 24.4786 42.7027 24.4786C42.1845 24.4786 41.8155 24.2984 41.5742 23.9254C41.3301 23.5506 41.2062 23.0178 41.2062 22.3426C41.2062 21.6685 41.3301 21.1376 41.5742 20.7656C41.8155 20.3976 42.1845 20.2184 42.7027 20.2184C43.22 20.2184 43.5909 20.3976 43.837 20.7656C44.084 21.1376 44.2099 21.6684 44.2099 22.3426ZM45.3743 21.0912C45.2599 20.7046 45.0817 20.3636 44.8444 20.0799C44.6071 19.7951 44.3068 19.5665 43.9503 19.3999C43.5948 19.2343 43.1744 19.15 42.7027 19.15C42.23 19.15 41.8096 19.2343 41.4541 19.3999C41.0976 19.5665 40.7974 19.7951 40.5591 20.0799C40.3227 20.3647 40.1445 20.7056 40.0292 21.0912C39.9159 21.4757 39.8587 21.8961 39.8587 22.3426C39.8587 22.7892 39.9159 23.2106 40.0292 23.5942C40.1445 23.9797 40.3218 24.3207 40.5601 24.6054C40.7974 24.8902 41.0986 25.1179 41.4542 25.2796C41.8106 25.4414 42.23 25.5237 42.7028 25.5237C43.1745 25.5237 43.5939 25.4414 43.9503 25.2796C44.3059 25.1179 44.6071 24.8902 44.8445 24.6054C45.0818 24.3216 45.26 23.9806 45.3743 23.5942C45.4887 23.2096 45.5458 22.7882 45.5458 22.3426C45.5458 21.8971 45.4885 21.4757 45.3743 21.0912ZM54.9356 24.2982C54.8968 24.1849 54.7874 24.2275 54.7874 24.2275C54.6179 24.2925 54.4377 24.3525 54.2459 24.3825C54.0512 24.4125 53.8371 24.4281 53.6075 24.4281C53.0438 24.4281 52.5963 24.2605 52.2757 23.9292C51.9541 23.5979 51.7739 23.0623 51.7758 22.3377C51.7778 21.678 51.9366 21.182 52.2224 20.8043C52.5062 20.4285 52.9383 20.2357 53.5146 20.2357C53.9951 20.2357 54.3612 20.2909 54.7447 20.412C54.7447 20.412 54.8367 20.4517 54.8803 20.3316C54.9131 20.2405 54.9431 20.1577 54.9724 20.077L54.9725 20.0767C55.0341 19.9069 55.0925 19.746 55.1661 19.5353C55.1971 19.4472 55.1215 19.4094 55.0944 19.3987C54.9433 19.3396 54.5868 19.2438 54.3175 19.2031C54.0657 19.1643 53.7712 19.144 53.4438 19.144C52.9545 19.144 52.5187 19.2273 52.1458 19.3939C51.7738 19.5596 51.458 19.7881 51.2082 20.073C50.9582 20.3578 50.7684 20.6987 50.6415 21.0842C50.5156 21.4687 50.4517 21.8911 50.4517 22.3377C50.4517 23.3034 50.7122 24.0841 51.2266 24.6557C51.7419 25.2291 52.5159 25.5207 53.5253 25.5207C54.122 25.5207 54.7342 25.3997 55.174 25.2262C55.174 25.2262 55.2582 25.1855 55.2214 25.0878L54.9356 24.2982ZM56.9728 21.6959C57.028 21.321 57.1317 21.0091 57.2915 20.766C57.5327 20.3969 57.9008 20.1945 58.4181 20.1945C58.9354 20.1945 59.2773 20.3979 59.5223 20.766C59.6851 21.0091 59.7558 21.3346 59.7839 21.6959H56.9728ZM60.893 20.8715C60.7942 20.4986 60.5491 20.1217 60.3883 19.9493C60.1345 19.6762 59.8866 19.4854 59.6405 19.3788C59.3189 19.2412 58.9333 19.1502 58.5111 19.1502C58.019 19.1502 57.5724 19.2326 57.2101 19.403C56.8469 19.5735 56.5418 19.806 56.3025 20.0957C56.0632 20.3843 55.8831 20.7281 55.7687 21.1185C55.6535 21.507 55.5954 21.9303 55.5954 22.3768C55.5954 22.8311 55.6555 23.2544 55.7746 23.6351C55.8947 24.0187 56.0865 24.3567 56.3461 24.6366C56.6047 24.9186 56.9379 25.1394 57.337 25.2933C57.7332 25.4464 58.2147 25.5259 58.7677 25.5248C59.906 25.521 60.5055 25.2672 60.7525 25.1306C60.7962 25.1064 60.8378 25.0638 60.7854 24.9418L60.5278 24.22C60.4891 24.1126 60.3796 24.1522 60.3796 24.1522C60.3549 24.1614 60.3294 24.1712 60.3026 24.1814C60.0235 24.2883 59.615 24.4446 58.7619 24.4429C58.1507 24.4419 57.6973 24.2618 57.4135 23.9798C57.1219 23.6912 56.9795 23.2669 56.9543 22.6683L60.8958 22.6722C60.8958 22.6722 60.9994 22.6703 61.0102 22.5695C61.0104 22.5667 61.0112 22.5608 61.0124 22.552L61.0125 22.5513C61.03 22.4237 61.1289 21.7003 60.893 20.8715ZM25.4072 21.6959C25.4634 21.321 25.5661 21.0091 25.7259 20.766C25.9671 20.3969 26.3352 20.1945 26.8525 20.1945C27.3697 20.1945 27.7117 20.3979 27.9577 20.766C28.1194 21.0091 28.1901 21.3346 28.2182 21.6959H25.4072ZM29.3264 20.8715C29.2276 20.4986 28.9835 20.1217 28.8228 19.9493C28.5689 19.6762 28.321 19.4854 28.075 19.3788C27.7533 19.2412 27.3679 19.1502 26.9455 19.1502C26.4544 19.1502 26.0069 19.2326 25.6446 19.403C25.2814 19.5735 24.9762 19.806 24.737 20.0957C24.4977 20.3843 24.3175 20.7281 24.2033 21.1185C24.089 21.507 24.0299 21.9303 24.0299 22.3768C24.0299 22.8311 24.0899 23.2544 24.2091 23.6351C24.3292 24.0187 24.5211 24.3567 24.7806 24.6366C25.0393 24.9186 25.3725 25.1394 25.7715 25.2933C26.1678 25.4464 26.6491 25.5259 27.2023 25.5248C28.3404 25.521 28.94 25.2672 29.1871 25.1306C29.2307 25.1064 29.2723 25.0638 29.22 24.9418L28.9633 24.22C28.9236 24.1126 28.8142 24.1522 28.8142 24.1522C28.7894 24.1614 28.7638 24.1712 28.737 24.1815C28.458 24.2884 28.05 24.4446 27.1955 24.4429C26.5853 24.4419 26.132 24.2618 25.8481 23.9798C25.5565 23.6912 25.4142 23.2669 25.3889 22.6683L29.3304 22.6722C29.3304 22.6722 29.434 22.6703 29.4447 22.5695C29.445 22.5665 29.4458 22.5602 29.4471 22.5507C29.4647 22.4213 29.5628 21.6989 29.3264 20.8715ZM16.8878 24.2767C16.7337 24.1536 16.7124 24.1226 16.6602 24.0432C16.5826 23.9221 16.5429 23.7497 16.5429 23.5308C16.5429 23.184 16.6572 22.935 16.8946 22.7675C16.8917 22.7685 17.2336 22.472 18.0376 22.4827C18.6023 22.4904 19.1069 22.5737 19.1069 22.5737V24.3658H19.1079C19.1079 24.3658 18.6071 24.4732 18.0434 24.5071C17.2413 24.5556 16.8848 24.2757 16.8878 24.2767ZM18.456 21.5073C18.2962 21.4956 18.0888 21.4888 17.8409 21.4888C17.5028 21.4888 17.1764 21.5314 16.8703 21.6138C16.5623 21.6961 16.2852 21.825 16.0469 21.9954C15.809 22.1652 15.6134 22.3876 15.4754 22.6453C15.336 22.905 15.2652 23.2111 15.2652 23.554C15.2652 23.9027 15.3253 24.2059 15.4454 24.4539C15.5656 24.7028 15.7389 24.9101 15.9597 25.07C16.1786 25.2298 16.4489 25.347 16.7627 25.4177C17.0718 25.4884 17.4224 25.5242 17.806 25.5242C18.2099 25.5242 18.6129 25.4913 19.0033 25.4244C19.3898 25.3585 19.8644 25.2626 19.9961 25.2327C20.0885 25.2104 20.1805 25.1869 20.2722 25.162C20.3701 25.1378 20.3623 25.0331 20.3623 25.0331L20.3603 21.4288C20.3603 20.6383 20.1492 20.0522 19.7336 19.689C19.32 19.3268 18.7107 19.1436 17.9232 19.1436C17.6277 19.1436 17.1522 19.1844 16.8674 19.2415C16.8674 19.2415 16.0062 19.4081 15.6517 19.6851C15.6517 19.6851 15.5742 19.7336 15.6168 19.8421L15.8958 20.5919C15.9307 20.6887 16.0247 20.6558 16.0247 20.6558C16.0247 20.6558 16.0547 20.6441 16.0896 20.6238C16.8481 20.2112 17.807 20.2238 17.807 20.2238C18.2333 20.2238 18.5607 20.309 18.7815 20.4785C18.9965 20.6431 19.106 20.8921 19.106 21.4171V21.5837C18.7669 21.5353 18.456 21.5073 18.456 21.5073ZM50.2458 19.4764C50.2757 19.3872 50.2128 19.3446 50.1866 19.3349C50.1198 19.3088 49.7847 19.2381 49.526 19.2216C49.0311 19.1916 48.756 19.2749 48.5099 19.3853C48.2658 19.4957 47.9946 19.6739 47.8434 19.8764V19.3969C47.8434 19.3301 47.796 19.2768 47.7301 19.2768H46.7198C46.6539 19.2768 46.6065 19.33 46.6065 19.3969V25.2757C46.6065 25.3416 46.6607 25.3958 46.7266 25.3958H47.7621C47.7938 25.3957 47.8242 25.3829 47.8465 25.3604C47.8688 25.3379 47.8813 25.3074 47.8812 25.2757V22.3388C47.8812 21.9445 47.9248 21.5513 48.012 21.3043C48.0973 21.0601 48.2135 20.8645 48.3569 20.724C48.5012 20.5845 48.6649 20.4867 48.8441 20.4315C49.0271 20.3753 49.2296 20.3569 49.373 20.3569C49.5793 20.3569 49.806 20.4101 49.806 20.4101C49.8815 20.4188 49.9241 20.3724 49.9492 20.3036C50.0171 20.1234 50.2089 19.5839 50.2458 19.4764Z" fill="#00A1E0"/>
</svg>
